<?xml version="1.0" encoding="utf-8"?>
<COLLADA xmlns="http://www.collada.org/2005/11/COLLADASchema" version="1.4.1" xmlns:xsi="http://www.w3.org/2001/XMLSchema-instance">
  <asset>
    <contributor>
      <author>Blender User</author>
      <authoring_tool>Blender 2.80.75 commit date:2019-07-29, commit time:14:47, hash:f6cb5f54494e</authoring_tool>
    </contributor>
    <created>2024-07-22T11:11:51</created>
    <modified>2024-07-22T11:11:51</modified>
    <unit name="meter" meter="1"/>
    <up_axis>Z_UP</up_axis>
  </asset>
  <library_effects>
    <effect id="Loader_car_Material_009-effect">
      <profile_COMMON>
        <newparam sid="Image_0_png-surface">
          <surface type="2D">
            <init_from>Image_0_png</init_from>
          </surface>
        </newparam>
        <newparam sid="Image_0_png-sampler">
          <sampler2D>
            <source>Image_0_png-surface</source>
          </sampler2D>
        </newparam>
        <technique sid="common">
          <lambert>
            <emission>
              <color sid="emission">0 0 0 1</color>
            </emission>
            <diffuse>
              <texture texture="Image_0_png-sampler" texcoord="Loader_car_Loader_car_Material_0_006-mesh-map-0"/>
            </diffuse>
            <index_of_refraction>
              <float sid="ior">1.45</float>
            </index_of_refraction>
          </lambert>
        </technique>
      </profile_COMMON>
    </effect>
  </library_effects>
  <library_images>
    <image id="Image_0_png" name="Image_0_png">
      <init_from>Image_0.png</init_from>
    </image>
  </library_images>
  <library_materials>
    <material id="Loader_car_Material_009-material" name="Loader_car_Material.009">
      <instance_effect url="#Loader_car_Material_009-effect"/>
    </material>
  </library_materials>
  <library_geometries>
    <geometry id="Loader_car_Loader_car_Material_0_009-mesh" name="Loader_car_Loader_car_Material_0.009">
      <mesh>
        <source id="Loader_car_Loader_car_Material_0_009-mesh-positions">
          <float_array id="Loader_car_Loader_car_Material_0_009-mesh-positions-array" count="150">8.082323 26.05044 1.90735e-6 8.082323 22.56036 -13.02523 -8.082314 22.56036 -13.02523 -8.082314 26.05045 0 8.082323 13.02523 -22.56036 -8.082314 13.02523 -22.56036 8.082323 -7.62939e-6 -26.05045 -8.082314 -7.62939e-6 -26.05046 8.082319 -13.02523 -22.56036 -8.082314 -13.02523 -22.56036 8.082319 -22.56036 -13.02523 -8.082314 -22.56036 -13.02523 8.082319 -26.05045 -3.8147e-6 -8.082314 -26.05045 -5.72205e-6 8.082319 -22.56036 13.02522 -8.082314 -22.56036 13.02522 8.082319 -13.02525 22.56036 -8.082319 -13.02525 22.56035 8.082319 -2.28882e-5 26.05046 -8.082319 -2.28882e-5 26.05045 8.082319 13.02521 22.56037 -8.082314 13.02521 22.56036 8.082319 22.56034 13.02525 -8.082314 22.56034 13.02525 8.082323 26.05044 1.90735e-6 -8.082314 26.05045 0 -8.082314 -22.56036 13.02522 -8.082314 -22.56036 -13.02523 -8.082314 -26.05045 -5.72205e-6 -8.082319 -13.02525 22.56035 -8.082314 -13.02523 -22.56036 -8.082319 -2.28882e-5 26.05045 -8.082314 -7.62939e-6 -26.05046 -8.082314 13.02521 22.56036 -8.082314 13.02523 -22.56036 -8.082314 22.56034 13.02525 -8.082314 22.56036 -13.02523 -8.082314 26.05045 0 8.082319 -22.56036 -13.02523 8.082319 -22.56036 13.02522 8.082319 -26.05045 -3.8147e-6 8.082319 -13.02523 -22.56036 8.082319 -13.02525 22.56036 8.082319 -2.28882e-5 26.05046 8.082323 -7.62939e-6 -26.05045 8.082319 13.02521 22.56037 8.082323 13.02523 -22.56036 8.082319 22.56034 13.02525 8.082323 22.56036 -13.02523 8.082323 26.05044 1.90735e-6</float_array>
          <technique_common>
            <accessor source="#Loader_car_Loader_car_Material_0_009-mesh-positions-array" count="50" stride="3">
              <param name="X" type="float"/>
              <param name="Y" type="float"/>
              <param name="Z" type="float"/>
            </accessor>
          </technique_common>
        </source>
        <source id="Loader_car_Loader_car_Material_0_009-mesh-normals">
          <float_array id="Loader_car_Loader_car_Material_0_009-mesh-normals-array" count="45">0 0.9659304 -0.2588022 0 0.8660317 -0.4999893 0 0.4999893 -0.8660317 0 0 -1 0 -0.4999893 -0.8660317 0 -0.8660317 -0.4999893 0 -1 0 0 -0.8660317 0.4999893 0 -0.4999893 0.8660317 0 0 1 0 0.4999893 0.8660317 0 0.8660317 0.4999893 0 0.9659304 0.2588022 -1 0 0 1 0 0</float_array>
          <technique_common>
            <accessor source="#Loader_car_Loader_car_Material_0_009-mesh-normals-array" count="15" stride="3">
              <param name="X" type="float"/>
              <param name="Y" type="float"/>
              <param name="Z" type="float"/>
            </accessor>
          </technique_common>
        </source>
        <source id="Loader_car_Loader_car_Material_0_009-mesh-map-0">
          <float_array id="Loader_car_Loader_car_Material_0_009-mesh-map-0-array" count="264">0.9172837 0.5594537 0.8976991 0.5594537 0.8976991 0.4419448 0.9172837 0.5594537 0.8976991 0.4419448 0.9172837 0.4419448 0.8976991 0.5594537 0.8781145 0.5594537 0.8781145 0.4419448 0.8976991 0.5594537 0.8781145 0.4419448 0.8976991 0.4419448 0.8781145 0.5594537 0.8585295 0.5594537 0.8585295 0.4419448 0.8781145 0.5594537 0.8585295 0.4419448 0.8781145 0.4419448 0.8585295 0.5594537 0.8389446 0.5594537 0.8389446 0.4419448 0.8585295 0.5594537 0.8389446 0.4419448 0.8585295 0.4419448 0.8389446 0.5594537 0.8193598 0.5594537 0.8193598 0.4419448 0.8389446 0.5594537 0.8193598 0.4419448 0.8389446 0.4419448 0.8193598 0.5594537 0.799775 0.5594537 0.799775 0.4419448 0.8193598 0.5594537 0.799775 0.4419448 0.8193598 0.4419448 0.799775 0.5594537 0.7801902 0.5594537 0.7801902 0.4419448 0.799775 0.5594537 0.7801902 0.4419448 0.799775 0.4419448 0.7801902 0.5594537 0.7606053 0.5594537 0.7606053 0.4419448 0.7801902 0.5594537 0.7606053 0.4419448 0.7801902 0.4419448 0.7606053 0.5594537 0.7410204 0.5594537 0.7410204 0.4419448 0.7606053 0.5594537 0.7410204 0.4419448 0.7606053 0.4419448 0.7410204 0.5594537 0.7214356 0.5594537 0.7214356 0.4419448 0.7410204 0.5594537 0.7214356 0.4419448 0.7410204 0.4419448 0.7214356 0.5594537 0.701851 0.5594537 0.701851 0.4419448 0.7214356 0.5594537 0.701851 0.4419448 0.7214356 0.4419448 0.701851 0.5594537 0.6822661 0.5594537 0.6822661 0.4419448 0.701851 0.5594537 0.6822661 0.4419448 0.701851 0.4419448 0.6365848 0.2876629 0.6786254 0.2767425 0.6590682 0.287835 0.6786254 0.2767425 0.6365848 0.2876629 0.6171998 0.2762721 0.6786254 0.2767425 0.6171998 0.2762721 0.6900162 0.2573575 0.6900162 0.2573575 0.6171998 0.2762721 0.6061072 0.2567148 0.6900162 0.2573575 0.6061072 0.2567148 0.6901884 0.2348741 0.6901884 0.2348741 0.6061072 0.2567148 0.6062795 0.2342315 0.6901884 0.2348741 0.6062795 0.2342315 0.6790959 0.2153169 0.6790959 0.2153169 0.6062795 0.2342315 0.6176703 0.2148464 0.6790959 0.2153169 0.6176703 0.2148464 0.6597108 0.203926 0.6597108 0.203926 0.6176703 0.2148464 0.6372275 0.2037538 0.9488308 0.1229349 0.8924264 0.1229349 0.9206286 0.1304917 0.8924264 0.1229349 0.9488308 0.1229349 0.9694761 0.1022896 0.8924264 0.1229349 0.9694761 0.1022896 0.8717812 0.1022896 0.8717812 0.1022896 0.9694761 0.1022896 0.8642244 0.07408744 0.8642244 0.07408744 0.9694761 0.1022896 0.977033 0.07408744 0.8642244 0.07408744 0.977033 0.07408744 0.8717812 0.04588532 0.8717812 0.04588532 0.977033 0.07408744 0.9694761 0.04588532 0.8717812 0.04588532 0.9694761 0.04588532 0.8924264 0.02523988 0.8924264 0.02523988 0.9694761 0.04588532 0.9488308 0.02523988 0.8924264 0.02523988 0.9488308 0.02523988 0.9206286 0.01768308</float_array>
          <technique_common>
            <accessor source="#Loader_car_Loader_car_Material_0_009-mesh-map-0-array" count="132" stride="2">
              <param name="S" type="float"/>
              <param name="T" type="float"/>
            </accessor>
          </technique_common>
        </source>
        <vertices id="Loader_car_Loader_car_Material_0_009-mesh-vertices">
          <input semantic="POSITION" source="#Loader_car_Loader_car_Material_0_009-mesh-positions"/>
        </vertices>
        <triangles material="Loader_car_Material_009-material" count="44">
          <input semantic="VERTEX" source="#Loader_car_Loader_car_Material_0_009-mesh-vertices" offset="0"/>
          <input semantic="NORMAL" source="#Loader_car_Loader_car_Material_0_009-mesh-normals" offset="1"/>
          <input semantic="TEXCOORD" source="#Loader_car_Loader_car_Material_0_009-mesh-map-0" offset="2" set="0"/>
          <p>0 0 0 1 1 1 2 1 2 0 0 3 2 1 4 3 0 5 1 1 6 4 2 7 5 2 8 1 1 9 5 2 10 2 1 11 4 2 12 6 3 13 7 3 14 4 2 15 7 3 16 5 2 17 6 3 18 8 4 19 9 4 20 6 3 21 9 4 22 7 3 23 8 4 24 10 5 25 11 5 26 8 4 27 11 5 28 9 4 29 10 5 30 12 6 31 13 6 32 10 5 33 13 6 34 11 5 35 12 6 36 14 7 37 15 7 38 12 6 39 15 7 40 13 6 41 14 7 42 16 8 43 17 8 44 14 7 45 17 8 46 15 7 47 16 8 48 18 9 49 19 9 50 16 8 51 19 9 52 17 8 53 18 9 54 20 10 55 21 10 56 18 9 57 21 10 58 19 9 59 20 10 60 22 11 61 23 11 62 20 10 63 23 11 64 21 10 65 22 11 66 24 12 67 25 12 68 22 11 69 25 12 70 23 11 71 26 13 72 27 13 73 28 13 74 27 13 75 26 13 76 29 13 77 27 13 78 29 13 79 30 13 80 30 13 81 29 13 82 31 13 83 30 13 84 31 13 85 32 13 86 32 13 87 31 13 88 33 13 89 32 13 90 33 13 91 34 13 92 34 13 93 33 13 94 35 13 95 34 13 96 35 13 97 36 13 98 36 13 99 35 13 100 37 13 101 38 14 102 39 14 103 40 14 104 39 14 105 38 14 106 41 14 107 39 14 108 41 14 109 42 14 110 42 14 111 41 14 112 43 14 113 43 14 114 41 14 115 44 14 116 43 14 117 44 14 118 45 14 119 45 14 120 44 14 121 46 14 122 45 14 123 46 14 124 47 14 125 47 14 126 46 14 127 48 14 128 47 14 129 48 14 130 49 14 131</p>
        </triangles>
      </mesh>
    </geometry>
  </library_geometries>
  <library_visual_scenes>
    <visual_scene id="Scene" name="Scene">
      <node id="back_wheel_left" name="back_wheel_left" type="NODE">
        <matrix sid="transform">-4.37114e-8 -1 0 0 1 -4.37114e-8 0 0 0 0 1 0 0 0 0 1</matrix>
        <instance_geometry url="#Loader_car_Loader_car_Material_0_009-mesh" name="back_wheel_left">
          <bind_material>
            <technique_common>
              <instance_material symbol="Loader_car_Material_009-material" target="#Loader_car_Material_009-material">
                <bind_vertex_input semantic="Loader_car_Loader_car_Material_0_006-mesh-map-0" input_semantic="TEXCOORD" input_set="0"/>
              </instance_material>
            </technique_common>
          </bind_material>
        </instance_geometry>
      </node>
    </visual_scene>
  </library_visual_scenes>
  <scene>
    <instance_visual_scene url="#Scene"/>
  </scene>
</COLLADA>