<?xml version="1.0" encoding="utf-8"?>
<COLLADA xmlns="http://www.collada.org/2005/11/COLLADASchema" version="1.4.1" xmlns:xsi="http://www.w3.org/2001/XMLSchema-instance">
  <asset>
    <contributor>
      <author>Blender User</author>
      <authoring_tool>Blender 4.4.0 commit date:2025-03-17, commit time:17:00, hash:05377985c527</authoring_tool>
    </contributor>
    <created>2025-05-05T16:04:23</created>
    <modified>2025-05-05T16:04:23</modified>
    <unit name="meter" meter="1"/>
    <up_axis>Z_UP</up_axis>
  </asset>
  <library_cameras>
    <camera id="Camera-camera" name="Camera">
      <optics>
        <technique_common>
          <perspective>
            <xfov sid="xfov">39.59775</xfov>
            <aspect_ratio>1.777778</aspect_ratio>
            <znear sid="znear">0.1</znear>
            <zfar sid="zfar">100</zfar>
          </perspective>
        </technique_common>
      </optics>
      <extra>
        <technique profile="blender">
          <shiftx sid="shiftx" type="float">0</shiftx>
          <shifty sid="shifty" type="float">0</shifty>
          <dof_distance sid="dof_distance" type="float">10</dof_distance>
        </technique>
      </extra>
    </camera>
  </library_cameras>
  <library_lights>
    <light id="Light-light" name="Light">
      <technique_common>
        <point>
          <color sid="color">1000 1000 1000</color>
          <constant_attenuation>1</constant_attenuation>
          <linear_attenuation>0</linear_attenuation>
          <quadratic_attenuation>0</quadratic_attenuation>
        </point>
      </technique_common>
      <extra>
        <technique profile="blender">
          <type sid="type" type="int">0</type>
          <flag sid="flag" type="int">0</flag>
          <mode sid="mode" type="int">2097153</mode>
          <red sid="red" type="float">1</red>
          <green sid="green" type="float">1</green>
          <blue sid="blue" type="float">1</blue>
          <energy sid="blender_energy" type="float">1000</energy>
          <spotsize sid="spotsize" type="float">75</spotsize>
          <spotblend sid="spotblend" type="float">0.15</spotblend>
          <clipsta sid="clipsta" type="float">0.04999995</clipsta>
          <clipend sid="clipend" type="float">40</clipend>
          <radius sid="radius" type="float">0.1</radius>
          <area_shape sid="area_shape" type="int">1</area_shape>
          <area_size sid="area_size" type="float">0.1</area_size>
          <area_sizey sid="area_sizey" type="float">0.1</area_sizey>
          <area_sizez sid="area_sizez" type="float">1</area_sizez>
        </technique>
      </extra>
    </light>
  </library_lights>
  <library_effects>
    <effect id="Loader_car_Material_008-effect">
      <profile_COMMON>
        <newparam sid="Image_0_png-surface">
          <surface type="2D">
            <init_from>Image_0_png</init_from>
          </surface>
        </newparam>
        <newparam sid="Image_0_png-sampler">
          <sampler2D>
            <source>Image_0_png-surface</source>
          </sampler2D>
        </newparam>
        <technique sid="common">
          <lambert>
            <emission>
              <color sid="emission">0 0 0 1</color>
            </emission>
            <diffuse>
              <texture texture="Image_0_png-sampler" texcoord="Loader_car_Loader_car_Material_0_008-mesh-map-0"/>
            </diffuse>
            <index_of_refraction>
              <float sid="ior">1.45</float>
            </index_of_refraction>
          </lambert>
        </technique>
      </profile_COMMON>
    </effect>
  </library_effects>
  <library_images>
    <image id="Image_0_png" name="Image_0_png">
      <init_from>Image_0.png</init_from>
    </image>
  </library_images>
  <library_materials>
    <material id="Loader_car_Material_008-material" name="Loader_car_Material.008">
      <instance_effect url="#Loader_car_Material_008-effect"/>
    </material>
  </library_materials>
  <library_geometries>
    <geometry id="Loader_car_Loader_car_Material_0_008-mesh" name="Loader_car_Loader_car_Material_0.008">
      <mesh>
        <source id="Loader_car_Loader_car_Material_0_008-mesh-positions">
          <float_array id="Loader_car_Loader_car_Material_0_008-mesh-positions-array" count="1221">55.41766 -0.8995056 -47.82634 26.21542 -0.8995056 -39.34529 32.54285 -0.8995056 -39.34529 8.600139 -0.8995056 -44.8933 26.21542 -0.8995056 -39.34529 55.41766 -0.8995056 -47.82634 -8.115291 -2.821945 -44.8933 -25.73057 -2.821945 -39.34529 -56.70298 -2.821945 -47.82634 -56.70298 -2.821945 -47.82634 -25.73057 -2.821945 -39.34529 -32.058 -2.821945 -39.34529 -56.70298 -2.821945 -47.82634 -32.058 -2.821945 -39.34529 -56.70298 -2.821945 -39.34529 55.41766 -0.8995056 -47.82634 32.54285 -0.8995056 -39.34529 55.41766 -0.8995056 -39.34529 26.21542 -2.821945 -13.86048 32.54285 -2.821945 -13.86048 57.193 -2.821945 -5.355938 -25.73057 -0.8995056 -13.86048 -32.058 -0.8995056 -13.86048 -54.76891 -0.8995056 -5.355938 -32.058 -2.821945 -13.86048 -25.73057 -2.821945 -13.86048 -56.70815 -2.821945 -5.355938 32.54285 -0.8995056 -13.86048 26.21542 -0.8995056 -13.86048 55.25376 -0.8995056 -5.355938 55.25376 -0.8995056 -13.86048 -56.70815 -2.821945 -13.86048 57.193 -2.821945 -13.86048 -54.76891 -0.8995056 -13.86048 57.18782 -2.821945 -47.82634 26.21542 -2.821945 -39.34529 8.600139 -2.821945 -44.8933 -54.93281 -0.8995056 -47.82634 -25.73057 -0.8995056 -39.34529 -8.115291 -0.8995056 -44.8933 -54.93281 -0.8995056 -47.82634 -8.115291 -0.8995056 -44.8933 -8.115291 -0.8995056 -47.82634 57.18782 -2.821945 -47.82634 8.600139 -2.821945 -44.8933 8.600139 -2.821945 -47.82634 -32.058 -0.8995056 -39.34529 -54.93281 -0.8995056 -39.34529 -25.73057 -0.8995056 -39.34529 -54.93281 -0.8995056 -47.82634 -32.058 -0.8995056 -39.34529 26.21542 -2.821945 -39.34529 32.54285 -2.821945 -39.34529 57.18782 -2.821945 -39.34529 -8.115291 -2.821945 -47.82634 -8.115291 -2.821945 -44.8933 8.600139 -0.8995056 -47.82634 8.600139 -0.8995056 -44.8933 -7.587373 -2.728844 7.674473 -7.587373 -2.728844 38.83753 -8.487961 -2.728844 38.83753 -8.487961 -2.728844 7.674473 -7.587373 3.454552 11.05595 -7.587373 3.454552 38.83752 -7.587373 -2.728844 38.83753 -7.587373 -2.728844 7.674473 -8.487961 3.454552 11.05595 -8.487961 3.454552 38.83752 -7.587373 3.454552 38.83752 -7.587373 3.454552 11.05595 -8.487961 -2.728844 7.674473 -8.487961 -2.728844 38.83753 -8.487961 3.454552 38.83752 -8.487961 3.454552 11.05595 -19.32215 -2.993919 -5.26062 -30.01324 -2.993919 -5.26062 -30.01324 -0.9928056 -5.26062 -19.32215 -0.9928056 -5.26062 -25.73057 -0.8995056 -39.34529 -32.058 -0.8995056 -39.34529 -32.058 -2.821945 -39.34529 -32.058 -2.821945 -13.86048 -32.058 -0.8995056 -13.86048 55.41766 -0.8995056 -47.82634 55.41766 -0.8995056 -39.34529 55.41766 3.954651 -39.34529 55.41766 3.954651 -47.82634 55.41766 -0.8995056 -39.34529 57.18782 -2.821945 -39.34529 57.18782 3.955315 -39.34529 55.41766 3.954651 -39.34529 32.54285 -0.8995056 -39.34529 32.54285 -2.821945 -39.34529 57.18782 -2.821945 -39.34529 55.41766 -0.8995056 -39.34529 -32.058 -2.821945 -39.34529 -32.058 -0.8995056 -39.34529 -54.93281 -0.8995056 -39.34529 -56.70298 -2.821945 -39.34529 -56.70298 3.955315 -47.82634 -56.70298 3.955315 -39.34529 -54.93281 3.954651 -39.34529 -54.93281 3.954651 -47.82634 55.41766 3.954651 -47.82634 55.41766 3.954651 -39.34529 57.18782 3.955315 -39.34529 57.18782 3.955315 -47.82634 -56.70298 -2.821945 -39.34529 -54.93281 -0.8995056 -39.34529 -54.93281 3.954651 -39.34529 -56.70298 3.955315 -39.34529 26.21542 -0.8995056 -39.34529 -25.73057 -2.821945 -39.34529 32.54285 -2.821945 -39.34529 32.54285 -0.8995056 -39.34529 32.54285 -0.8995056 -13.86048 32.54285 -2.821945 -13.86048 -54.76891 -0.8995056 -5.355938 -56.70815 -2.821945 -5.355938 57.193 -2.821945 -5.355938 55.25376 -0.8995056 -5.355938 26.21542 -2.821945 -13.86048 57.193 -2.821945 -5.355938 -56.70815 -2.821945 -5.355938 -25.73057 -2.821945 -13.86048 57.193 -2.821945 -13.86048 55.25376 -0.8995056 -13.86048 55.25376 4.05719 -13.86048 57.193 4.054886 -13.86048 55.25376 -0.8995056 -5.355938 57.193 -2.821945 -5.355938 57.193 4.054886 -5.355938 55.25376 4.05719 -5.355938 32.54285 -2.821945 -13.86048 32.54285 -0.8995056 -13.86048 55.25376 -0.8995056 -13.86048 57.193 -2.821945 -13.86048 -32.058 -0.8995056 -13.86048 -32.058 -2.821945 -13.86048 -56.70815 -2.821945 -13.86048 -54.76891 -0.8995056 -13.86048 -54.76891 4.05719 -13.86048 -56.70815 4.054886 -13.86048 -56.70815 4.054886 -5.355938 -54.76891 4.05719 -5.355938 57.193 4.054886 -13.86048 55.25376 4.05719 -13.86048 55.25376 4.05719 -5.355938 57.193 4.054886 -5.355938 -54.76891 -0.8995056 -5.355938 -54.76891 -0.8995056 -13.86048 -54.76891 4.05719 -13.86048 -54.76891 4.05719 -5.355938 -56.70815 -2.821945 -5.355938 -54.76891 -0.8995056 -5.355938 -54.76891 4.05719 -5.355938 -56.70815 4.054886 -5.355938 -54.76891 -0.8995056 -13.86048 -56.70815 -2.821945 -13.86048 -56.70815 4.054886 -13.86048 -54.76891 4.05719 -13.86048 55.25376 -0.8995056 -13.86048 55.25376 -0.8995056 -5.355938 55.25376 4.05719 -5.355938 55.25376 4.05719 -13.86048 -25.73057 -0.8995056 -13.86048 -54.76891 -0.8995056 -5.355938 55.25376 -0.8995056 -5.355938 26.21542 -0.8995056 -13.86048 -25.73057 -2.821945 -13.86048 -25.73057 -0.8995056 -13.86048 26.21542 -0.8995056 -13.86048 26.21542 -2.821945 -13.86048 26.21542 -0.8995056 -39.34529 -25.73057 -0.8995056 -39.34529 -25.73057 -2.821945 -39.34529 26.21542 -2.821945 -39.34529 8.600139 -2.821945 -44.8933 26.21542 -2.821945 -39.34529 -25.73057 -2.821945 -39.34529 -8.115291 -2.821945 -44.8933 -54.93281 -0.8995056 -39.34529 -54.93281 -0.8995056 -47.82634 -54.93281 3.954651 -47.82634 -54.93281 3.954651 -39.34529 8.600139 -0.8995056 -44.8933 8.600139 -0.8995056 -47.82634 8.600139 -2.821945 -47.82634 8.600139 -2.821945 -44.8933 -8.115291 -0.8995056 -44.8933 8.600139 -0.8995056 -44.8933 8.600139 -2.821945 -44.8933 -8.115291 -2.821945 -44.8933 -8.115291 -0.8995056 -47.82634 -8.115291 -0.8995056 -44.8933 -8.115291 -2.821945 -44.8933 -8.115291 -2.821945 -47.82634 -58.52638 -2.877716 -47.92805 -58.52638 -2.877716 26.35876 -58.52638 4.068481 26.35876 -58.52638 4.068481 -47.92805 -58.52638 4.068481 -47.92805 -58.52638 4.068481 26.35876 -56.7387 4.068481 26.35876 -56.7387 4.068481 -47.92805 -56.7387 4.068481 -47.92805 -56.7387 4.068481 26.35876 -56.7387 -2.877716 26.35876 -56.7387 -2.877716 -47.92805 -56.7387 -2.877716 -47.92805 -56.7387 -2.877716 26.35876 -58.52638 -2.877716 26.35876 -58.52638 -2.877716 -47.92805 -57.22501 -2.877716 34.58192 -57.22501 4.068481 34.58192 -52.58093 -2.877716 39.15082 -51.78786 -2.877716 37.48519 -44.44364 -2.877716 38.636 -44.44367 -2.877716 40.42368 -55.56889 -2.877716 33.63564 -57.22501 -2.877716 34.58192 -57.22501 4.068481 34.58192 -55.56889 4.068481 33.63564 -55.56889 4.068481 33.63564 -55.56889 -2.877716 33.63564 -51.78786 4.068481 37.48519 -52.58093 4.068481 39.15082 -44.44367 4.068481 40.42368 -44.44364 4.068481 38.636 -51.78786 -2.877716 37.48519 -51.78786 4.068481 37.48519 -44.44364 4.068481 38.636 -44.44364 -2.877716 38.636 -52.58093 4.068481 39.15082 -52.58093 -2.877716 39.15082 -44.44367 -2.877716 40.42368 -44.44367 4.068481 40.42368 -57.22501 4.068481 34.58192 -57.22501 -2.877716 34.58192 -51.78786 4.068481 37.48519 -51.78786 -2.877716 37.48519 -55.56889 4.068481 33.63564 -57.22501 4.068481 34.58192 -52.58093 4.068481 39.15082 -51.78786 4.068481 37.48519 -57.22501 -2.877716 34.58192 -55.56889 -2.877716 33.63564 -51.78786 -2.877716 37.48519 -52.58093 -2.877716 39.15082 44.92861 4.068481 38.636 44.92861 -2.877716 38.636 44.92861 -2.877716 38.636 44.92865 -2.877716 40.42368 -44.44367 -2.877716 40.42368 -44.44364 -2.877716 38.636 44.92865 4.068481 40.42368 44.92861 4.068481 38.636 -44.44364 4.068481 38.636 -44.44367 4.068481 40.42368 59.01136 4.068497 -47.92805 59.01136 4.068489 26.35876 59.01136 -2.877708 26.35876 59.01136 -2.877701 -47.92805 59.01136 -2.877701 -47.92805 59.01136 -2.877708 26.35876 57.22368 -2.877708 26.35876 57.22368 -2.877701 -47.92805 57.22368 -2.877701 -47.92805 57.22368 -2.877708 26.35876 57.22368 4.068489 26.35876 57.22368 4.068497 -47.92805 57.22368 4.068497 -47.92805 57.22368 4.068489 26.35876 59.01136 4.068489 26.35876 59.01136 4.068497 -47.92805 57.70999 4.068489 34.58192 57.70999 -2.877708 34.58192 53.06591 4.068489 39.15082 52.27284 4.068489 37.48519 44.92861 4.068481 38.636 44.92865 4.068481 40.42368 59.01136 4.068489 26.35876 57.22368 4.068489 26.35876 56.05387 4.068489 33.63564 57.70999 4.068489 34.58192 57.70999 -2.877708 34.58192 56.05387 -2.877708 33.63564 56.05387 -2.877708 33.63564 56.05387 4.068489 33.63564 52.27284 -2.877708 37.48519 53.06591 -2.877708 39.15082 44.92865 -2.877716 40.42368 44.92861 -2.877716 38.636 52.27284 4.068489 37.48519 52.27284 -2.877708 37.48519 53.06591 -2.877708 39.15082 53.06591 4.068489 39.15082 44.92865 4.068481 40.42368 44.92865 -2.877716 40.42368 57.70999 -2.877708 34.58192 57.70999 4.068489 34.58192 52.27284 -2.877708 37.48519 52.27284 4.068489 37.48519 56.05387 -2.877708 33.63564 57.70999 -2.877708 34.58192 53.06591 -2.877708 39.15082 52.27284 -2.877708 37.48519 57.70999 4.068489 34.58192 56.05387 4.068489 33.63564 52.27284 4.068489 37.48519 53.06591 4.068489 39.15082 -57.18191 3.309921 11.22486 -57.18191 -2.784958 7.708263 57.66684 -2.784958 7.708263 57.66684 3.309921 11.22486 57.66684 -2.140289 6.590935 57.66684 -2.784958 7.708263 -57.18191 -2.784958 7.708263 -57.18191 -2.140289 6.590935 -57.18191 3.95459 10.10753 -57.18191 3.309921 11.22486 57.66684 3.309921 11.22486 57.66684 3.95459 10.10753 57.66684 3.95459 10.10753 57.66684 -2.140289 6.590935 -57.18191 -2.140289 6.590935 -57.18191 3.95459 10.10753 -24.10338 -2.728844 7.674473 -24.10338 -2.728844 38.83753 -25.00397 -2.728844 38.83753 -25.00397 -2.728844 7.674473 -24.10338 3.454552 11.05595 -24.10338 3.454552 38.83752 -24.10338 -2.728844 38.83753 -24.10338 -2.728844 7.674473 -25.00397 3.454552 11.05595 -25.00397 3.454552 38.83752 -24.10338 3.454552 38.83752 -24.10338 3.454552 11.05595 -25.00397 -2.728844 7.674473 -25.00397 -2.728844 38.83753 -25.00397 3.454552 38.83752 -25.00397 3.454552 11.05595 -40.71002 -2.728844 7.674473 -40.71002 -2.728844 38.83753 -41.61061 -2.728844 38.83753 -41.61061 -2.728844 7.674473 -40.71002 3.454552 11.05595 -40.71002 3.454552 38.83752 -40.71002 -2.728844 38.83753 -40.71002 -2.728844 7.674473 -41.61061 3.454552 11.05595 -41.61061 3.454552 38.83752 -40.71002 3.454552 38.83752 -40.71002 3.454552 11.05595 -41.61061 -2.728844 7.674473 -41.61061 -2.728844 38.83753 -41.61061 3.454552 38.83752 -41.61061 3.454552 11.05595 8.993061 -2.728844 7.674473 8.993061 -2.728844 38.83753 8.092472 -2.728844 38.83753 8.092472 -2.728844 7.674473 8.993061 3.454552 11.05595 8.993061 3.454552 38.83752 8.993061 -2.728844 38.83753 8.993061 -2.728844 7.674473 8.092472 3.454552 11.05595 8.092472 3.454552 38.83752 8.993061 3.454552 38.83752 8.993061 3.454552 11.05595 8.092472 -2.728844 7.674473 8.092472 -2.728844 38.83753 8.092472 3.454552 38.83752 8.092472 3.454552 11.05595 25.4922 -2.728844 7.674473 25.4922 -2.728844 38.83753 24.59161 -2.728844 38.83753 24.59161 -2.728844 7.674473 25.4922 3.454552 11.05595 25.4922 3.454552 38.83752 25.4922 -2.728844 38.83753 25.4922 -2.728844 7.674473 24.59161 3.454552 11.05595 24.59161 3.454552 38.83752 25.4922 3.454552 38.83752 25.4922 3.454552 11.05595 24.59161 -2.728844 7.674473 24.59161 -2.728844 38.83753 24.59161 3.454552 38.83752 24.59161 3.454552 11.05595 42.09903 -2.728844 7.674473 42.09903 -2.728844 38.83753 41.19844 -2.728844 38.83753 41.19844 -2.728844 7.674473 42.09903 3.454552 11.05595 42.09903 3.454552 38.83752 42.09903 -2.728844 38.83753 42.09903 -2.728844 7.674473 41.19844 3.454552 11.05595 41.19844 3.454552 38.83752 42.09903 3.454552 38.83752 42.09903 3.454552 11.05595 41.19844 -2.728844 7.674473 41.19844 -2.728844 38.83753 41.19844 3.454552 38.83752 41.19844 3.454552 11.05595</float_array>
          <technique_common>
            <accessor source="#Loader_car_Loader_car_Material_0_008-mesh-positions-array" count="407" stride="3">
              <param name="X" type="float"/>
              <param name="Y" type="float"/>
              <param name="Z" type="float"/>
            </accessor>
          </technique_common>
        </source>
        <source id="Loader_car_Loader_car_Material_0_008-mesh-normals">
          <float_array id="Loader_car_Loader_car_Material_0_008-mesh-normals-array" count="345">0 1 0 0 1 0 0 -1 0 0 -1 0 0 1 0 0 -1 2.84344e-7 1 1.40999e-7 0 1 -1.58374e-7 0 -1 0 0 -1 1.7765e-7 0 0 0 -1 -1 0 0 0 0 1 -4.78633e-7 0 1 3.75102e-4 1 0 3.75104e-4 1 0 -3.75104e-4 1 0 -3.75105e-4 1 0 3.42815e-7 0 1 1 0 0 1.54756e-7 0 -1 0 0 1 -0.001188099 0.9999993 0 -0.001188099 0.9999993 0 0.001188099 0.9999993 0 0.001188099 0.9999993 0 3.96859e-7 0 1 0 0 1 -2.14707e-7 0 -1 0 1 0 0 -1 0 0 -1 1.64538e-7 0 1 0 0 1 0 -0.9969223 0 0.07839685 -0.9969221 0 0.07839822 0.996826 0 -0.07961219 0.9968259 0 -0.07961386 -0.9877079 0 0.1563112 -0.9877079 0 0.1563112 0 -1 0 0 -1 0 0.8925188 0 -0.4510105 0.8925119 0 -0.4510239 0 1 0 0.1548079 0 -0.9879447 0.1548074 0 -0.9879447 0.07764047 0 -0.9969815 0.07763797 0 -0.9969816 -0.4494896 0 0.8932856 -0.4495049 0 0.8932779 -0.07750731 0 0.9969918 -0.07750481 0 0.996992 -0.7013128 0 0.7128537 -0.7013136 0 0.712853 0.7134272 0 -0.7007294 0.7134267 0 -0.7007299 0 1 0 0 -1 -1.91631e-7 0 -1 1.25939e-7 -0.07763791 0 -0.9969816 -0.07764029 0 -0.9969815 0 -1 3.82022e-7 0 -1 0 0 1 3.82022e-7 0 1 0 0.9969223 0 0.07839709 0.9969221 0 0.0783984 0 -1 0 0 -1 0 -0.996826 0 -0.07961243 -0.9968258 0 -0.0796141 0 1 0 0 1 0 0.9877079 0 0.1563116 -1.02713e-6 1 5.80383e-7 -9.96178e-7 1 1.29391e-7 0 1 0 0 -1 0 -0.8925187 0 -0.4510104 -0.8925119 0 -0.4510239 9.27134e-7 -1 -5.23885e-7 1.10375e-6 -1 0 -0.1548076 0 -0.9879447 -0.154807 0 -0.9879448 0.4494896 0 0.8932856 0.4495049 0 0.8932779 0.07750719 0 0.9969918 0.07750481 0 0.996992 0.7013132 0 0.7128534 0.7013138 0 0.7128527 -0.7134276 0 -0.700729 -0.7134271 0 -0.7007295 0 -1 0 0 1 -2.09898e-7 0 -0.4997567 0.8661659 0 -0.4997567 0.8661659 0 -0.8661667 -0.4997554 0 -0.8661668 -0.4997553 0 0.8661671 0.4997546 0 0.8661673 0.4997543 0 0.4997564 -0.8661661 0 0.4997564 -0.866166 1 0 0 1 6.33495e-7 0 -1 0 0 1 7.73669e-7 0 -1 -7.61034e-7 0 1 0 0 -1 0 0 1 -1.32545e-7 0 -1 -5.86647e-7 0 -1 7.10602e-7 0 1 5.24155e-7 0 -1 7.28395e-7 0</float_array>
          <technique_common>
            <accessor source="#Loader_car_Loader_car_Material_0_008-mesh-normals-array" count="115" stride="3">
              <param name="X" type="float"/>
              <param name="Y" type="float"/>
              <param name="Z" type="float"/>
            </accessor>
          </technique_common>
        </source>
        <source id="Loader_car_Loader_car_Material_0_008-mesh-map-0">
          <float_array id="Loader_car_Loader_car_Material_0_008-mesh-map-0-array" count="1320">0.1973459 0.2006611 0.2114782 0.24946 0.2114782 0.2388852 0.2022334 0.2789056 0.2114782 0.24946 0.1973459 0.2006611 0.2028536 0.08340656 0.2120113 0.05398672 0.1980122 0.002195835 0.1980122 0.002195835 0.2120113 0.05398672 0.2120113 0.04341208 0.1980122 0.002195835 0.2120113 0.04341208 0.2120113 0.00222522 0.1973459 0.2006611 0.2114782 0.2388852 0.2114782 0.200654 0.254078 0.1408874 0.254078 0.151462 0.2681157 0.192687 0.253944 0.3362567 0.253944 0.3468317 0.2681149 0.3847817 0.254078 0.04350048 0.254078 0.05407446 0.2681158 0.00233376 0.253944 0.2388631 0.253944 0.2494382 0.268115 0.2008985 0.253944 0.2388631 0.268115 0.2008985 0.253944 0.2009059 0.254078 0.04350048 0.2681158 0.00233376 0.254078 0.002304375 0.2681157 0.192687 0.254078 0.151462 0.254078 0.1926576 0.2681149 0.3847817 0.253944 0.3468317 0.2539439 0.3847893 0.1980121 0.1925318 0.2120113 0.1407995 0.2028536 0.1113414 0.1973459 0.3850923 0.2114782 0.3362786 0.2022334 0.3068425 0.1973459 0.3850923 0.2022334 0.3068425 0.1973459 0.3068451 0.1980121 0.1925318 0.2028536 0.1113414 0.1980121 0.1113313 0.2114782 0.3468539 0.1973459 0.3850923 0.2114781 0.3850851 0.2114782 0.3362786 0.1973459 0.3850923 0.2114782 0.3468539 0.2120113 0.1407995 0.1980121 0.1925318 0.2120113 0.1513739 0.2120113 0.1513739 0.1980121 0.1925318 0.2120113 0.1925611 0.1980121 0.08339619 0.2028536 0.08340656 0.1980122 0.002195835 0.1973459 0.2789084 0.2022334 0.2789056 0.1973459 0.2006611 0.1288018 0.5881595 0.1288018 0.5367199 0.1272966 0.536723 0.1288018 0.5881595 0.1272966 0.536723 0.1272966 0.5881627 0.3372669 0.2243876 0.2908345 0.2243876 0.2908335 0.234721 0.3372669 0.2243876 0.2908335 0.234721 0.3429176 0.234721 0.04477894 0.5821959 0.04477888 0.628489 0.04628396 0.6284897 0.04477894 0.5821959 0.04628396 0.6284897 0.04628396 0.5821967 0.3284935 0.1610912 0.2764105 0.1610912 0.2764083 0.1714221 0.3284935 0.1610912 0.2764083 0.1714221 0.3228397 0.1714221 0.1317716 0.6561547 0.1496398 0.6561547 0.1496409 0.6528147 0.1317716 0.6561547 0.1496409 0.6528147 0.1317722 0.6528147 0.131419 0.5888045 0.1282068 0.588804 0.1282067 0.6313969 0.131419 0.5888045 0.1282067 0.6313969 0.131419 0.6313975 0.2335373 0.5774748 0.2477115 0.5774748 0.2477136 0.5693643 0.2335373 0.5774748 0.2477136 0.5693643 0.233539 0.5693643 0.3006195 0.5779128 0.3035779 0.5811226 0.3035779 0.5698083 0.3006195 0.5779128 0.3035779 0.5698083 0.3006195 0.569809 0.2623875 0.5779092 0.2623875 0.5811184 0.3035779 0.5811226 0.2623875 0.5779092 0.3035779 0.5811226 0.3006195 0.5779128 0.22768 0.54808 0.2276802 0.5512896 0.2659122 0.5512896 0.22768 0.54808 0.2659122 0.5512896 0.2688702 0.54808 0.2825188 0.2689188 0.2966508 0.2689188 0.2966525 0.2659605 0.2825188 0.2689188 0.2966525 0.2659605 0.2825202 0.2659605 0.2884671 0.2737028 0.274335 0.2737028 0.2743334 0.2766609 0.2884671 0.2737028 0.2743334 0.2766609 0.2884654 0.2766609 0.2688702 0.54808 0.2659122 0.5512896 0.265913 0.5593937 0.2688702 0.54808 0.265913 0.5593937 0.2688717 0.5593953 0.2114782 0.2388852 0.2114782 0.24946 0.253944 0.2494382 0.2114782 0.2388852 0.253944 0.2494382 0.253944 0.2388631 0.2120113 0.04341208 0.2120113 0.05398672 0.254078 0.05407446 0.2120113 0.04341208 0.254078 0.05407446 0.254078 0.04350048 0.2120113 0.1407995 0.2120113 0.1513739 0.254078 0.151462 0.2120113 0.1407995 0.254078 0.151462 0.254078 0.1408874 0.3189983 0.3489972 0.3189986 0.3457846 0.2764049 0.3457846 0.3189983 0.3489972 0.2764049 0.3457846 0.2764045 0.3489972 0.07114571 0.3252081 0.06793618 0.321967 0.06793618 0.5123363 0.07114571 0.3252081 0.06793618 0.5123363 0.07114565 0.5090948 0.254078 0.1408874 0.2681157 0.192687 0.2681158 0.00233376 0.254078 0.1408874 0.2681158 0.00233376 0.254078 0.05407446 0.07999503 0.5742491 0.08320355 0.5774914 0.09147644 0.5774936 0.07999503 0.5742491 0.09147644 0.5774936 0.0914725 0.5742524 0.07114565 0.5090948 0.06793618 0.5123363 0.07941722 0.5123351 0.07114565 0.5090948 0.07941722 0.5123351 0.07942116 0.5090938 0.07999503 0.615448 0.08320355 0.6154488 0.08320355 0.5774914 0.07999503 0.615448 0.08320355 0.5774914 0.07999503 0.5742491 0.3191185 0.2653698 0.3191193 0.2621619 0.2779207 0.2621617 0.3191185 0.2653698 0.2779207 0.2621617 0.2811609 0.2653697 0.292938 0.2081266 0.2929397 0.2048856 0.2787685 0.2048856 0.292938 0.2081266 0.2787685 0.2048856 0.2787666 0.2081266 0.2966508 0.2731336 0.2966525 0.2698931 0.2824811 0.2698931 0.2966508 0.2731336 0.2824811 0.2698931 0.2824795 0.2731336 0.639746 0.08729153 0.625532 0.08729153 0.6255314 0.09557491 0.639746 0.08729153 0.6255314 0.09557491 0.6397451 0.09557491 0.06793618 0.321967 0.07114571 0.3252081 0.07942122 0.3252071 0.06793618 0.321967 0.07942122 0.3252071 0.07941728 0.321966 0.2811609 0.2653697 0.2779207 0.2621617 0.2779175 0.2736381 0.2811609 0.2653697 0.2779175 0.2736381 0.2811586 0.2736421 0.639746 0.07900959 0.6255322 0.07900959 0.6255303 0.08729153 0.639746 0.07900959 0.6255303 0.08729153 0.6397441 0.08729153 0.253944 0.3362567 0.2681149 0.3847817 0.268115 0.2008985 0.253944 0.3362567 0.268115 0.2008985 0.253944 0.2494382 0.06088089 0.6008834 0.06408995 0.6008844 0.06408995 0.5140652 0.06088089 0.6008834 0.06408995 0.5140652 0.06088089 0.5140643 0.06408995 0.5140644 0.06408995 0.6008848 0.06729942 0.6008844 0.06408995 0.5140644 0.06729942 0.6008844 0.06729942 0.5140643 0.2028536 0.1113414 0.2120113 0.1407995 0.2120113 0.05398672 0.2028536 0.1113414 0.2120113 0.05398672 0.2028536 0.08340656 0.2022334 0.3068425 0.2114782 0.3362786 0.2114782 0.24946 0.2022334 0.3068425 0.2114782 0.24946 0.2022334 0.2789056 0.1995494 0.6012246 0.1995494 0.6153994 0.2076615 0.6154001 0.1995494 0.6012246 0.2076615 0.6154001 0.2076615 0.6012253 0.1915774 0.1991683 0.1915774 0.1942664 0.1883655 0.1942658 0.1915774 0.1991683 0.1883655 0.1942658 0.1883655 0.1991676 0.109387 0.5927205 0.109387 0.6206575 0.1125954 0.6206584 0.109387 0.5927205 0.1125954 0.6206584 0.1125954 0.5927213 0.2085977 0.1975896 0.2085977 0.1926874 0.205385 0.192687 0.2085977 0.1975896 0.205385 0.192687 0.205385 0.1975892 0.6999891 0.1360504 0.7000415 0.2602061 0.7116467 0.2602037 0.6999891 0.1360504 0.7116467 0.2602037 0.7115947 0.1360481 0.6933913 0.2892684 0.6934553 0.4130546 0.696443 0.4130541 0.6933913 0.2892684 0.696443 0.4130541 0.696379 0.2892684 0.0579617 0.6073934 0.0580818 0.4832353 0.04647356 0.4832231 0.0579617 0.6073934 0.04647356 0.4832231 0.04635381 0.6073814 0.8869112 0.1434301 0.8866547 0.2660521 0.8896424 0.2660524 0.8869112 0.1434301 0.8896424 0.2660524 0.8898987 0.1434301 0.7116467 0.2602037 0.7000415 0.2602061 0.6999891 0.2739674 0.7116467 0.2602037 0.6999891 0.2739674 0.7115947 0.2739652 0.8796621 0.2871677 0.8783423 0.2844178 0.8660646 0.2863177 0.8796621 0.2871677 0.8660646 0.2863177 0.8660585 0.2892684 0.8896424 0.2660524 0.8866547 0.2660521 0.8846745 0.2780634 0.8896424 0.2660524 0.8846745 0.2780634 0.8874394 0.279626 0.696443 0.4130541 0.6934553 0.4130546 0.6956374 0.4267563 0.696443 0.4130541 0.6956374 0.4267563 0.6984041 0.4251798 0.04647356 0.4832231 0.0580818 0.4832353 0.05806094 0.4710832 0.04647356 0.4832231 0.05806094 0.4710832 0.04645282 0.471071 0.7047271 0.4315945 0.7034032 0.4343699 0.7170039 0.4364911 0.7047271 0.4315945 0.7170039 0.4364911 0.7170026 0.4335116 0.9879173 0.3997481 0.9995104 0.3997513 0.9994062 0.3874862 0.9879173 0.3997481 0.9994062 0.3874862 0.9878138 0.3874832 0.07977932 0.5063185 0.09137636 0.5063174 0.09147602 0.4927217 0.07977932 0.5063185 0.09147602 0.4927217 0.07987922 0.4927229 0.07942116 0.5140643 0.09101778 0.5140631 0.09137636 0.5063174 0.07942116 0.5140643 0.09137636 0.5063174 0.07977932 0.5063185 0.04645282 0.471071 0.05806094 0.4710832 0.0579617 0.4646818 0.04645282 0.471071 0.0579617 0.4646818 0.04635381 0.4646697 0.6984041 0.4251798 0.6956374 0.4267563 0.7034032 0.4343699 0.6984041 0.4251798 0.7034032 0.4343699 0.7047271 0.4315945 0.8874394 0.279626 0.8846745 0.2780634 0.8783423 0.2844178 0.8874394 0.279626 0.8783423 0.2844178 0.8796621 0.2871677 0.9994062 0.2381149 0.9878137 0.2381118 0.9878138 0.3874832 0.9994062 0.2381149 0.9878138 0.3874832 0.9994062 0.3874862 0.7167044 0.2863177 0.7166982 0.2892684 0.8660585 0.2892684 0.7167044 0.2863177 0.8660585 0.2892684 0.8660646 0.2863177 0.8663738 0.4364911 0.8663723 0.4335126 0.7170026 0.4335116 0.8663738 0.4364911 0.7170026 0.4335116 0.7170039 0.4364911 0.1406401 0.4771968 0.1406732 0.6013547 0.1522812 0.6013529 0.1406401 0.4771968 0.1522812 0.6013529 0.1522485 0.4771944 0.6934679 0.1434301 0.6932114 0.2660524 0.696199 0.2660524 0.6934679 0.1434301 0.696199 0.2660524 0.6964554 0.1434301 0.05788958 0.4646697 0.05808192 0.340514 0.0464763 0.3404939 0.05788958 0.4646697 0.0464763 0.3404939 0.04628396 0.4646492 0.8868468 0.2892684 0.886911 0.4130546 0.8898987 0.4130546 0.8868468 0.2892684 0.8898987 0.4130546 0.8898347 0.2892684 0.1522812 0.6013529 0.1406732 0.6013547 0.1406401 0.6151096 0.1522812 0.6013529 0.1406401 0.6151096 0.1522485 0.6151077 0.8799729 0.4343699 0.8786461 0.4315945 0.8663723 0.4335126 0.8799729 0.4343699 0.8663723 0.4335126 0.8663738 0.4364911 0.8898987 0.4130546 0.886911 0.4130546 0.8849622 0.4251798 0.8898987 0.4130546 0.8849622 0.4251798 0.8877305 0.4267563 0.696199 0.2660524 0.6932114 0.2660524 0.6953581 0.279626 0.696199 0.2660524 0.6953581 0.279626 0.6981291 0.2780634 0.0464763 0.3404939 0.05808192 0.340514 0.0580486 0.3283683 0.0464763 0.3404939 0.0580486 0.3283683 0.04644268 0.328348 0.7044346 0.2844178 0.7031036 0.2871677 0.7166982 0.2892684 0.7044346 0.2844178 0.7166982 0.2892684 0.7167044 0.2863177 0.9995099 0.2258306 0.9879173 0.2258273 0.9878137 0.2381118 0.9995099 0.2258306 0.9878137 0.2381118 0.9994062 0.2381149 0.09137636 0.3297443 0.07977932 0.3297452 0.07987922 0.3433501 0.09137636 0.3297443 0.07987922 0.3433501 0.09147644 0.3433488 0.09101784 0.321966 0.07942122 0.321967 0.07977932 0.3297452 0.09101784 0.321966 0.07977932 0.3297452 0.09137636 0.3297443 0.04644268 0.328348 0.0580486 0.3283683 0.05788964 0.3219864 0.04644268 0.328348 0.05788964 0.3219864 0.04628396 0.321966 0.6981291 0.2780634 0.6953581 0.279626 0.7031036 0.2871677 0.6981291 0.2780634 0.7031036 0.2871677 0.7044346 0.2844178 0.8877305 0.4267563 0.8849622 0.4251798 0.8786461 0.4315945 0.8877305 0.4267563 0.8786461 0.4315945 0.8799729 0.4343699 0.09147644 0.3433488 0.07987922 0.3433501 0.07987922 0.4927229 0.09147644 0.3433488 0.07987922 0.4927229 0.09147602 0.4927217 0.171082 0.5446898 0.1809815 0.5446761 0.1809819 0.3527233 0.171082 0.5446898 0.1809819 0.3527233 0.171082 0.3527368 0.3030058 0.1986514 0.3029879 0.2003265 0.4949247 0.2003265 0.3030058 0.1986514 0.4949247 0.2003265 0.4949426 0.1986513 0.4949334 0.345497 0.4949252 0.3437184 0.3029761 0.3437184 0.4949334 0.345497 0.3029761 0.3437184 0.3029842 0.345497 0.0580818 0.5139171 0.06793618 0.5139493 0.06793618 0.3219984 0.0580818 0.5139171 0.06793618 0.3219984 0.05808192 0.321966 0.3793842 0.146354 0.4308236 0.146354 0.4308204 0.1448489 0.3793842 0.146354 0.4308204 0.1448489 0.3793809 0.144849 0.1303068 0.5423707 0.1303068 0.588803 0.1406401 0.588804 0.1303068 0.5423707 0.1406401 0.588804 0.1406401 0.5367199 0.07849019 0.5742491 0.07849013 0.6205423 0.07999503 0.6205433 0.07849019 0.5742491 0.07999503 0.6205433 0.07999503 0.5742502 0.06730139 0.5661481 0.06730139 0.6182311 0.07763242 0.6182331 0.06730139 0.5661481 0.07763242 0.6182331 0.07763242 0.5718017 0.1303068 0.5881595 0.1303068 0.5367199 0.1288018 0.536723 0.1303068 0.5881595 0.1288018 0.536723 0.1288018 0.5881627 0.06729942 0.5197148 0.06729942 0.5661472 0.07763242 0.5661481 0.06729942 0.5197148 0.07763242 0.5661481 0.07763242 0.5140643 0.3429176 0.2228826 0.2966246 0.2228826 0.2966238 0.2243875 0.3429176 0.2228826 0.2966238 0.2243875 0.3429168 0.2243876 0.3284935 0.1507599 0.2764105 0.1507599 0.2764083 0.1610907 0.3284935 0.1507599 0.2764083 0.1610907 0.3228397 0.1610907 0.06088089 0.5655036 0.06088089 0.5140643 0.05937618 0.5140672 0.06088089 0.5655036 0.05937618 0.5140672 0.05937618 0.5655069 0.6823716 0.0629118 0.6359394 0.0629118 0.6359384 0.07324558 0.6823716 0.0629118 0.6359384 0.07324558 0.6880221 0.07324558 0.1523923 0.5800825 0.1523923 0.6263757 0.1538974 0.6263763 0.1523923 0.5800825 0.1538974 0.6263763 0.1538974 0.5800834 0.32849 0.1758333 0.2764073 0.1758333 0.2764052 0.1861643 0.32849 0.1758333 0.2764052 0.1861643 0.3228363 0.1861643 0.1538974 0.5286367 0.1538974 0.4771974 0.1523923 0.4772005 0.1538974 0.5286367 0.1523923 0.4772005 0.1523923 0.5286399 0.1973285 0.5547916 0.1973285 0.6012237 0.2076615 0.6012246 0.1973285 0.5547916 0.2076615 0.6012246 0.2076615 0.5491407 0.05937618 0.5655069 0.05937618 0.6117998 0.06088089 0.6118006 0.05937618 0.5655069 0.06088089 0.6118006 0.06088089 0.5655077 0.9981446 0.2258273 0.9981446 0.1737444 0.9878138 0.1737424 0.9981446 0.2258273 0.9878138 0.1737424 0.9878137 0.2201738 0.1538974 0.5800793 0.1538974 0.5286399 0.1523923 0.5286429 0.1538974 0.5800793 0.1523923 0.5286429 0.1523923 0.5800825 0.2941466 0.5671411 0.2477145 0.5671411 0.2477136 0.5774748 0.2941466 0.5671411 0.2477136 0.5774748 0.2997975 0.5774748 0.03052794 0.5836897 0.03052794 0.6299827 0.0320335 0.6299836 0.03052794 0.5836897 0.0320335 0.6299836 0.0320335 0.5836905 0.32849 0.1861642 0.2764073 0.1861642 0.2764052 0.1964954 0.32849 0.1861642 0.2764052 0.1964954 0.3228363 0.1964954</float_array>
          <technique_common>
            <accessor source="#Loader_car_Loader_car_Material_0_008-mesh-map-0-array" count="660" stride="2">
              <param name="S" type="float"/>
              <param name="T" type="float"/>
            </accessor>
          </technique_common>
        </source>
        <vertices id="Loader_car_Loader_car_Material_0_008-mesh-vertices">
          <input semantic="POSITION" source="#Loader_car_Loader_car_Material_0_008-mesh-positions"/>
        </vertices>
        <triangles material="Loader_car_Material_008-material" count="220">
          <input semantic="VERTEX" source="#Loader_car_Loader_car_Material_0_008-mesh-vertices" offset="0"/>
          <input semantic="NORMAL" source="#Loader_car_Loader_car_Material_0_008-mesh-normals" offset="1"/>
          <input semantic="TEXCOORD" source="#Loader_car_Loader_car_Material_0_008-mesh-map-0" offset="2" set="0"/>
          <p>0 0 0 1 0 1 2 0 2 3 1 3 4 1 4 5 1 5 6 2 6 7 2 7 8 2 8 9 2 9 10 2 10 11 2 11 12 2 12 13 2 13 14 2 14 15 1 15 16 1 16 17 1 17 18 2 18 19 2 19 20 2 20 21 1 21 22 1 22 23 1 23 24 2 24 25 2 25 26 2 26 27 1 27 28 1 28 29 1 29 27 1 30 29 1 31 30 1 32 24 2 33 26 2 34 31 2 35 20 2 36 19 2 37 32 2 38 23 1 39 22 1 40 33 1 41 34 3 42 35 3 43 36 3 44 37 4 45 38 4 46 39 4 47 40 1 48 41 1 49 42 1 50 43 2 51 44 2 52 45 2 53 46 1 54 40 1 55 47 1 56 48 1 57 49 1 58 50 1 59 51 5 60 43 5 61 52 5 62 52 2 63 43 2 64 53 2 65 54 2 66 55 2 67 12 2 68 56 1 69 57 1 70 15 1 71 58 2 72 59 2 73 60 2 74 58 2 75 60 2 76 61 2 77 62 6 78 63 6 79 64 6 80 62 7 81 64 7 82 65 7 83 66 1 84 67 1 85 68 1 86 66 1 87 68 1 88 69 1 89 70 8 90 71 8 91 72 8 92 70 9 93 72 9 94 73 9 95 74 10 96 75 10 97 76 10 98 74 10 99 76 10 100 77 10 101 79 11 102 80 11 103 81 11 104 79 11 105 81 11 106 82 11 107 83 11 108 84 11 109 85 11 110 83 11 111 85 11 112 86 11 113 87 12 114 88 12 115 89 12 116 87 13 117 89 13 118 90 13 119 91 12 120 92 12 121 93 12 122 91 12 123 93 12 124 94 12 125 95 12 126 96 12 127 97 12 128 95 12 129 97 12 130 98 12 131 99 14 132 100 14 133 101 14 134 99 15 135 101 15 136 102 15 137 103 16 138 104 16 139 105 16 140 103 17 141 105 17 142 106 17 143 107 12 144 108 12 145 109 12 146 107 18 147 109 18 148 110 18 149 16 1 150 111 1 151 28 1 152 16 1 153 28 1 154 27 1 155 13 2 156 112 2 157 25 2 158 13 2 159 25 2 160 24 2 161 51 2 162 52 2 163 19 2 164 51 2 165 19 2 166 18 2 167 113 19 168 114 19 169 115 19 170 113 19 171 115 19 172 116 19 173 117 12 174 118 12 175 119 12 176 117 12 177 119 12 178 120 12 179 121 2 180 122 2 181 123 2 182 121 2 183 123 2 184 124 2 185 125 10 186 126 10 187 127 10 188 125 20 189 127 20 190 128 20 191 129 12 192 130 12 193 131 12 194 129 21 195 131 21 196 132 21 197 133 10 198 134 10 199 135 10 200 133 10 201 135 10 202 136 10 203 137 10 204 138 10 205 139 10 206 137 10 207 139 10 208 140 10 209 141 22 210 142 22 211 143 22 212 141 23 213 143 23 214 144 23 215 145 24 216 146 24 217 147 24 218 145 25 219 147 25 220 148 25 221 149 19 222 150 19 223 151 19 224 149 19 225 151 19 226 152 19 227 153 26 228 154 26 229 155 26 230 153 27 231 155 27 232 156 27 233 157 10 234 158 10 235 159 10 236 157 28 237 159 28 238 160 28 239 161 11 240 162 11 241 163 11 242 161 11 243 163 11 244 164 11 245 165 1 246 166 1 247 167 1 248 165 29 249 167 29 250 168 29 251 169 10 252 170 10 253 171 10 254 169 10 255 171 10 256 172 10 257 173 12 258 174 12 259 175 12 260 173 12 261 175 12 262 176 12 263 177 30 264 178 30 265 179 30 266 177 31 267 179 31 268 180 31 269 41 32 270 78 32 271 111 32 272 41 33 273 111 33 274 57 33 275 181 19 276 182 19 277 183 19 278 181 19 279 183 19 280 184 19 281 185 11 282 186 11 283 187 11 284 185 11 285 187 11 286 188 11 287 189 10 288 190 10 289 191 10 290 189 10 291 191 10 292 192 10 293 193 19 294 194 19 295 195 19 296 193 19 297 195 19 298 196 19 299 197 11 300 198 34 301 199 35 302 197 11 303 199 35 304 200 11 305 201 1 306 202 1 307 203 1 308 201 1 309 203 1 310 204 1 311 205 19 312 206 36 313 207 37 314 205 19 315 207 37 316 208 19 317 209 2 318 210 2 319 211 2 320 209 2 321 211 2 322 212 2 323 199 35 324 198 34 325 213 38 326 199 35 327 213 38 328 214 39 329 215 2 330 216 2 331 217 2 332 215 40 333 217 40 334 218 40 335 211 2 336 210 2 337 219 2 338 211 41 339 219 41 340 220 41 341 203 1 342 202 1 343 221 1 344 203 1 345 221 1 346 222 1 347 207 37 348 206 36 349 223 42 350 207 37 351 223 42 352 224 43 353 225 1 354 226 1 355 227 1 356 225 44 357 227 44 358 228 44 359 229 45 360 230 46 361 231 47 362 229 45 363 231 47 364 232 48 365 233 49 366 234 50 367 235 51 368 233 49 369 235 51 370 236 52 371 237 53 372 238 54 373 234 50 374 237 53 375 234 50 376 233 49 377 224 43 378 223 42 379 239 55 380 224 43 381 239 55 382 240 56 383 241 1 384 242 1 385 243 1 386 241 57 387 243 57 388 244 57 389 245 58 390 246 58 391 247 58 392 245 59 393 247 59 394 248 59 395 249 60 396 250 61 397 232 48 398 249 60 399 232 48 400 231 47 401 251 62 402 252 62 403 253 62 404 251 63 405 253 63 406 254 63 407 255 64 408 256 64 409 257 64 410 255 65 411 257 65 412 258 65 413 259 19 414 260 66 415 261 67 416 259 19 417 261 67 418 262 19 419 263 68 420 264 68 421 265 68 422 263 69 423 265 69 424 266 69 425 267 11 426 268 70 427 269 71 428 267 11 429 269 71 430 270 11 431 271 72 432 272 72 433 273 72 434 271 73 435 273 73 436 274 73 437 261 67 438 260 66 439 275 74 440 261 67 441 275 74 442 276 74 443 277 75 444 278 75 445 279 75 446 277 76 447 279 76 448 280 76 449 281 1 450 282 1 451 283 1 452 281 77 453 283 77 454 284 77 455 265 78 456 264 78 457 285 78 458 265 2 459 285 2 460 286 2 461 269 71 462 268 70 463 287 79 464 269 71 465 287 79 466 288 80 467 289 81 468 290 81 469 291 81 470 289 82 471 291 82 472 292 82 473 293 83 474 294 84 475 250 61 476 293 83 477 250 61 478 249 60 479 295 85 480 296 86 481 297 87 482 295 85 483 297 87 484 298 88 485 299 89 486 300 90 487 296 86 488 299 89 489 296 86 490 295 85 491 288 80 492 287 79 493 301 91 494 288 80 495 301 91 496 302 92 497 303 2 498 304 2 499 305 2 500 303 93 501 305 93 502 306 93 503 307 1 504 308 1 505 309 1 506 307 94 507 309 94 508 310 94 509 298 88 510 297 87 511 236 52 512 298 88 513 236 52 514 235 51 515 311 95 516 312 95 517 313 95 518 311 96 519 313 96 520 314 96 521 315 97 522 316 97 523 317 97 524 315 98 525 317 98 526 318 98 527 319 99 528 320 99 529 321 99 530 319 100 531 321 100 532 322 100 533 323 101 534 324 101 535 325 101 536 323 102 537 325 102 538 326 102 539 327 2 540 328 2 541 329 2 542 327 2 543 329 2 544 330 2 545 331 103 546 332 103 547 333 103 548 331 104 549 333 104 550 334 104 551 335 1 552 336 1 553 337 1 554 335 1 555 337 1 556 338 1 557 339 105 558 340 105 559 341 105 560 339 11 561 341 11 562 342 11 563 343 2 564 344 2 565 345 2 566 343 2 567 345 2 568 346 2 569 347 106 570 348 106 571 349 106 572 347 19 573 349 19 574 350 19 575 351 1 576 352 1 577 353 1 578 351 1 579 353 1 580 354 1 581 355 107 582 356 107 583 357 107 584 355 11 585 357 11 586 358 11 587 359 2 588 360 2 589 361 2 590 359 2 591 361 2 592 362 2 593 363 108 594 364 108 595 365 108 596 363 19 597 365 19 598 366 19 599 367 1 600 368 1 601 369 1 602 367 1 603 369 1 604 370 1 605 371 109 606 372 109 607 373 109 608 371 11 609 373 11 610 374 11 611 375 2 612 376 2 613 377 2 614 375 2 615 377 2 616 378 2 617 379 110 618 380 110 619 381 110 620 379 19 621 381 19 622 382 19 623 383 1 624 384 1 625 385 1 626 383 1 627 385 1 628 386 1 629 387 111 630 388 111 631 389 111 632 387 112 633 389 112 634 390 112 635 391 2 636 392 2 637 393 2 638 391 2 639 393 2 640 394 2 641 395 113 642 396 113 643 397 113 644 395 19 645 397 19 646 398 19 647 399 1 648 400 1 649 401 1 650 399 1 651 401 1 652 402 1 653 403 114 654 404 114 655 405 114 656 403 11 657 405 11 658 406 11 659</p>
        </triangles>
      </mesh>
    </geometry>
  </library_geometries>
  <library_visual_scenes>
    <visual_scene id="Scene" name="Scene">
      <node id="Loader_car_Loader_car_Material_0_004" name="Loader_car_Loader_car_Material_0.004" type="NODE">
        <matrix sid="transform">5.68461e-10 -0.01415946 0 0 0.007529497 1.06901e-9 0 0 0 0 0.01460073 0 0 0 0 1</matrix>
        <instance_geometry url="#Loader_car_Loader_car_Material_0_008-mesh" name="Loader_car_Loader_car_Material_0.004">
          <bind_material>
            <technique_common>
              <instance_material symbol="Loader_car_Material_008-material" target="#Loader_car_Material_008-material">
                <bind_vertex_input semantic="Loader_car_Loader_car_Material_0_008-mesh-map-0" input_semantic="TEXCOORD" input_set="0"/>
              </instance_material>
            </technique_common>
          </bind_material>
        </instance_geometry>
      </node>
      <node id="Camera" name="Camera" type="NODE">
        <matrix sid="transform">0.6859207 -0.3240135 0.6515582 7.358891 0.7276763 0.3054208 -0.6141704 -6.925791 0 0.8953956 0.4452714 4.958309 0 0 0 1</matrix>
        <instance_camera url="#Camera-camera"/>
      </node>
      <node id="Light" name="Light" type="NODE">
        <matrix sid="transform">-0.2908646 -0.7711008 0.5663932 4.076245 0.9551712 -0.1998834 0.2183912 1.005454 -0.05518906 0.6045247 0.7946723 5.903862 0 0 0 1</matrix>
        <instance_light url="#Light-light"/>
      </node>
    </visual_scene>
  </library_visual_scenes>
  <scene>
    <instance_visual_scene url="#Scene"/>
  </scene>
</COLLADA>