<?xml version="1.0" encoding="utf-8"?>
<COLLADA xmlns="http://www.collada.org/2005/11/COLLADASchema" version="1.4.1" xmlns:xsi="http://www.w3.org/2001/XMLSchema-instance">
  <asset>
    <contributor>
      <author>Blender User</author>
      <authoring_tool>Blender 2.80.75 commit date:2019-07-29, commit time:14:47, hash:f6cb5f54494e</authoring_tool>
    </contributor>
    <created>2024-07-22T12:28:34</created>
    <modified>2024-07-22T12:28:34</modified>
    <unit name="meter" meter="1"/>
    <up_axis>Z_UP</up_axis>
  </asset>
  <library_effects>
    <effect id="Loader_car_Material-effect">
      <profile_COMMON>
        <newparam sid="Image_0_png-surface">
          <surface type="2D">
            <init_from>Image_0_png</init_from>
          </surface>
        </newparam>
        <newparam sid="Image_0_png-sampler">
          <sampler2D>
            <source>Image_0_png-surface</source>
          </sampler2D>
        </newparam>
        <technique sid="common">
          <lambert>
            <emission>
              <color sid="emission">0 0 0 1</color>
            </emission>
            <diffuse>
              <texture texture="Image_0_png-sampler" texcoord="Loader_car_Loader_car_Material_0_002-mesh-map-0"/>
            </diffuse>
            <index_of_refraction>
              <float sid="ior">1.45</float>
            </index_of_refraction>
          </lambert>
        </technique>
      </profile_COMMON>
    </effect>
  </library_effects>
  <library_images>
    <image id="Image_0_png" name="Image_0_png">
      <init_from>Image_0.png</init_from>
    </image>
  </library_images>
  <library_materials>
    <material id="Loader_car_Material-material" name="Loader_car_Material">
      <instance_effect url="#Loader_car_Material-effect"/>
    </material>
  </library_materials>
  <library_geometries>
    <geometry id="Loader_car_Loader_car_Material_0_002-mesh" name="Loader_car_Loader_car_Material_0.002">
      <mesh>
        <source id="Loader_car_Loader_car_Material_0_002-mesh-positions">
          <float_array id="Loader_car_Loader_car_Material_0_002-mesh-positions-array" count="459">-0.4005241 5.901966 26.27898 -0.4005241 5.901966 24.96134 -1.527054 4.938465 24.96134 -1.527054 4.938465 24.96134 -1.527065 4.938465 26.27898 -0.4005241 5.901966 26.27898 1.268326 3.950764 26.27898 1.268336 3.950764 24.96134 0.9971659 5.40807 24.96134 0.9971659 5.40807 24.96134 0.9971659 5.40807 26.27898 1.268326 3.950764 26.27898 0.1417961 2.98727 26.27898 0.1417961 2.98727 24.96133 1.268336 3.950764 24.96134 1.268336 3.950764 24.96134 1.268326 3.950764 26.27898 0.1417961 2.98727 26.27898 -1.255894 3.481068 26.27898 -1.255894 3.481068 24.96134 0.1417961 2.98727 24.96133 0.1417961 2.98727 24.96133 0.1417961 2.98727 26.27898 -1.255894 3.481068 26.27898 -1.527065 4.938465 26.27898 -1.527054 4.938465 24.96134 -1.255894 3.481068 24.96134 -1.255894 3.481068 24.96134 -1.255894 3.481068 26.27898 -1.527065 4.938465 26.27898 1.268326 3.950764 26.27898 0.9971659 5.40807 26.27898 -0.4005241 5.901966 26.27898 -1.527065 4.938465 26.27898 -1.255894 3.481068 26.27898 0.1417961 2.98727 26.27898 0.2865658 3.958263 25.04478 0.2865753 3.958263 23.44561 0.3330461 4.871166 23.44562 -0.5917549 4.01807 25.04478 -0.5917549 4.01807 23.44562 0.2865753 3.958263 23.44561 0.2865658 3.958263 25.04478 -0.5452843 4.930866 25.04478 -0.5452747 4.930866 23.44562 -0.5917549 4.01807 23.44562 -0.5917549 4.01807 25.04478 -0.4266453 6.04237 23.48791 -0.5952053 6.948368 22.3805 -2.530584 5.293064 22.3805 -2.530584 5.293064 22.3805 -1.661694 4.985966 23.48791 -0.4266453 6.04237 23.48791 1.105665 5.500965 23.48791 1.806006 6.099865 22.3805 -0.5952053 6.948368 22.3805 -0.5952053 6.948368 22.3805 -0.4266453 6.04237 23.48791 1.105665 5.500965 23.48791 1.402945 3.903164 23.48791 2.271866 3.596165 22.3805 1.806006 6.099865 22.3805 1.806006 6.099865 22.3805 1.105665 5.500965 23.48791 1.402945 3.903164 23.48791 0.1679153 2.846867 23.48791 0.3364965 1.940861 22.38048 2.271866 3.596165 22.3805 2.271866 3.596165 22.3805 1.402945 3.903164 23.48791 0.1679153 2.846867 23.48791 -1.364395 3.388264 23.48791 -2.064724 2.789364 22.3805 0.3364965 1.940861 22.38048 0.3364965 1.940861 22.38048 0.1679153 2.846867 23.48791 -1.364395 3.388264 23.48791 -1.661694 4.985966 23.48791 -2.530584 5.293064 22.3805 -2.064724 2.789364 22.3805 -2.064724 2.789364 22.3805 -1.364395 3.388264 23.48791 -1.661694 4.985966 23.48791 1.402945 3.903164 23.48791 1.105665 5.500965 23.48791 -0.4266453 6.04237 23.48791 -1.661694 4.985966 23.48791 -1.364395 3.388264 23.48791 0.1679153 2.846867 23.48791 -5.496525 -104.1279 -27.52498 -5.496525 -1.838345 -27.52497 -5.496525 3.614864 -32.91159 -5.496525 -104.1279 -30.28151 -5.496525 -104.1279 -30.28151 -5.496525 3.614864 -32.91159 5.194565 3.614864 -32.91159 5.194565 -104.1279 -30.28151 -5.496525 -104.1279 -30.28151 5.194565 -104.1279 -30.28151 2.211535 -109.0263 -30.1829 -2.513494 -109.0263 -30.1829 5.194565 -104.1279 -27.52498 5.194565 -1.838345 -27.52497 -5.496525 -1.838345 -27.52497 -5.496525 -104.1279 -27.52498 5.194565 -104.1279 -27.52498 5.194565 -104.1279 -30.28151 5.194565 3.614864 -32.91159 5.194565 -1.838345 -27.52497 2.211535 -109.0263 -30.1829 2.211535 -109.0263 -27.52498 -2.513494 -109.0263 -27.52498 -2.513494 -109.0263 -30.1829 5.194565 -104.1279 -27.52498 -5.496525 -104.1279 -27.52498 -2.513494 -109.0263 -27.52498 2.211535 -109.0263 -27.52498 5.194565 -104.1279 -30.28151 5.194565 -104.1279 -27.52498 2.211535 -109.0263 -27.52498 2.211535 -109.0263 -30.1829 -5.496525 -104.1279 -27.52498 -5.496525 -104.1279 -30.28151 -2.513494 -109.0263 -30.1829 -2.513494 -109.0263 -27.52498 5.194565 3.614864 -32.91159 -5.496525 3.614864 -32.91159 -5.496525 3.614864 18.3976 5.194565 3.614864 18.3976 -5.496525 -1.838345 22.443 5.194565 -1.838345 22.443 5.194565 10.60017 22.443 -5.496525 10.60017 22.443 -5.496525 -1.838345 -27.52497 5.194565 -1.838345 -27.52497 5.194565 -1.838345 22.443 -5.496525 -1.838345 22.443 -5.496525 3.614864 -32.91159 -5.496525 -1.838345 -27.52497 -5.496525 -1.838345 22.443 -5.496525 3.614864 18.3976 5.194565 -1.838345 -27.52497 5.194565 3.614864 -32.91159 5.194565 3.614864 18.3976 5.194565 -1.838345 22.443 -5.496525 3.614864 18.3976 -5.496525 -1.838345 22.443 -5.496525 10.60017 22.443 -5.496525 5.615971 18.3976 5.194565 -1.838345 22.443 5.194565 3.614864 18.3976 5.194565 5.615971 18.3976 5.194565 10.60017 22.443</float_array>
          <technique_common>
            <accessor source="#Loader_car_Loader_car_Material_0_002-mesh-positions-array" count="153" stride="3">
              <param name="X" type="float"/>
              <param name="Y" type="float"/>
              <param name="Z" type="float"/>
            </accessor>
          </technique_common>
        </source>
        <source id="Loader_car_Loader_car_Material_0_002-mesh-normals">
          <float_array id="Loader_car_Loader_car_Material_0_002-mesh-normals-array" count="159">-0.6499762 0.7599546 0 -0.6499712 0.7599589 -5.37082e-6 0.9831249 0.182936 7.20203e-6 0.9831261 0.1829296 0 0.6499695 -0.7599603 0 0.6499726 -0.7599577 4.88261e-6 -0.3331171 -0.9428856 0 -0.3331179 -0.9428852 0 -0.9831282 -0.1829184 -8.42221e-6 -0.9831266 -0.1829263 0 4.00927e-6 1.08716e-6 1 -1.20268e-5 3.42913e-6 1 4.00906e-6 -1.14308e-6 1 5.01158e-6 -4.51656e-6 1 0.9987082 -0.05081433 0 -0.06793481 -0.9976898 0 -0.9987066 0.05084478 0 -0.5273103 0.6165334 0.5846628 -0.5273187 0.6164866 0.5847045 0.270304 0.7649422 0.584636 0.2702717 0.7649291 0.5846682 0.7975778 0.1484041 0.584676 0.7975887 0.1483955 0.5846635 0.5273066 -0.616531 0.5846687 0.5273072 -0.6165308 0.5846683 -0.2702994 -0.7649477 0.5846308 -0.270264 -0.7649332 0.5846663 -0.797594 -0.1484073 0.5846529 -0.7975888 -0.1484114 0.5846592 6.67086e-6 9.91554e-7 1 -6.67107e-6 3.1279e-6 1 2.22368e-6 -1.04263e-6 1 3.33567e-6 -4.11965e-6 1 -1 0 0 -1 0 0 0 -0.02440339 -0.9997022 0 -0.02440339 -0.9997022 0 -0.02012842 -0.9997974 0 -0.02012836 -0.9997974 0 0 1 0 0 1 1 0 0 1 0 0 0 -1 0 0 0 1 0.8540915 -0.5201229 0 0.8540917 -0.5201226 0 -0.8540915 -0.5201229 0 -0.8540917 -0.5201227 0 0 1 0 -1 2.45406e-7 0 1 0 0 1 1.67995e-7 0</float_array>
          <technique_common>
            <accessor source="#Loader_car_Loader_car_Material_0_002-mesh-normals-array" count="53" stride="3">
              <param name="X" type="float"/>
              <param name="Y" type="float"/>
              <param name="Z" type="float"/>
            </accessor>
          </technique_common>
        </source>
        <source id="Loader_car_Loader_car_Material_0_002-mesh-map-0">
          <float_array id="Loader_car_Loader_car_Material_0_002-mesh-map-0-array" count="402">0.1836218 0.1966059 0.1814264 0.1966389 0.1813282 0.1985124 0.1813282 0.1985124 0.1835237 0.1984795 0.1836218 0.1966059 0.2063956 0.2000324 0.2085977 0.2000341 0.2085977 0.1975914 0.2085977 0.1975914 0.2063956 0.1975896 0.2063956 0.2000324 0.1861922 0.1961337 0.1883655 0.1962022 0.1881677 0.194334 0.1881677 0.194334 0.1859936 0.1942658 0.1861922 0.1961337 0.1859936 0.1984758 0.1881677 0.198544 0.1883655 0.1962022 0.1883655 0.1962022 0.1861922 0.1961337 0.1859936 0.1984758 0.09045886 0.6354313 0.09266048 0.6354339 0.09266048 0.6329872 0.09266048 0.6329872 0.09045886 0.6329845 0.09045886 0.6354313 0.07597798 0.6304815 0.07812243 0.6317174 0.08026701 0.6304771 0.08026701 0.6304771 0.08026701 0.6280005 0.07812243 0.6267648 0.07597798 0.6304815 0.08026701 0.6304771 0.07812243 0.6267648 0.07597798 0.6304815 0.07812243 0.6267648 0.07597798 0.6280053 0.2047172 0.2002627 0.2047172 0.1975899 0.2031936 0.1975896 0.3260107 0.2907471 0.3286504 0.2907471 0.328663 0.2892779 0.328663 0.2892779 0.3260234 0.2892779 0.3260107 0.2907471 0.2031936 0.2002629 0.2031936 0.1975904 0.2016704 0.1975896 0.2016704 0.1975896 0.2016704 0.2002618 0.2031936 0.2002629 0.07183974 0.6362435 0.07266747 0.6348468 0.06841313 0.6348468 0.06841313 0.6348468 0.06912469 0.6362435 0.07183974 0.6362435 0.1771736 0.1954764 0.1754381 0.1942658 0.1754381 0.1982898 0.1754381 0.1982898 0.1771736 0.1980444 0.1771736 0.1954764 0.1734952 0.1966811 0.171638 0.1961423 0.171638 0.2003394 0.171638 0.2003394 0.1734952 0.1993595 0.1734952 0.1966811 0.08891916 0.6282706 0.08684599 0.6285075 0.08718681 0.6317174 0.08718681 0.6317174 0.08913666 0.6303188 0.08891916 0.6282706 0.08913666 0.6257033 0.08718639 0.6244845 0.08684599 0.6285075 0.08684599 0.6285075 0.08891916 0.6282706 0.08913666 0.6257033 0.1753576 0.1966965 0.1734952 0.1961423 0.1734952 0.2003465 0.1734952 0.2003465 0.1753576 0.1993792 0.1753576 0.1966965 0.07184481 0.6409453 0.0731998 0.6385944 0.07183974 0.6362435 0.07183974 0.6362435 0.06912469 0.6362435 0.06776976 0.6385944 0.07184481 0.6409453 0.07183974 0.6362435 0.06776976 0.6385944 0.07184481 0.6409453 0.06776976 0.6385944 0.06912976 0.6409453 0.8087937 0.01082879 0.9796443 0.01500082 0.9889704 0.006222784 0.8087937 0.01082879 0.9889704 0.006222784 0.808905 0.006222784 0.1093446 0.5020173 0.1093446 0.321966 0.09147644 0.3219686 0.1093446 0.5020173 0.09147644 0.3219686 0.09147644 0.50202 0.1093446 0.5020173 0.09147644 0.50202 0.09646165 0.5102031 0.1093446 0.5020173 0.09646165 0.5102031 0.1043585 0.5102021 0.3241667 0.2525892 0.4949407 0.2525891 0.4949426 0.234721 0.3241667 0.2525892 0.4949426 0.234721 0.3241683 0.234721 0.7916141 0.006135523 0.7915015 0.001530051 0.6113958 0.00152266 0.7916141 0.006135523 0.6113958 0.00152266 0.6207264 0.01030147 0.0705648 0.6329387 0.07495194 0.6329478 0.07495194 0.6250512 0.0705648 0.6329387 0.07495194 0.6250512 0.0705648 0.6250421 0.3241667 0.2525892 0.3241683 0.234721 0.3159899 0.2397071 0.3241667 0.2525892 0.3159899 0.2397071 0.3159891 0.247604 0.7915015 0.001530051 0.7916141 0.006135523 0.799715 0.005964398 0.7915015 0.001530051 0.799715 0.005964398 0.7996064 0.00152266 0.8087937 0.01082879 0.808905 0.006222784 0.8005856 0.006226301 0.8087937 0.01082879 0.8005856 0.006226301 0.8004779 0.01066708 0.404617 0.2714002 0.4046263 0.2535321 0.3191287 0.2535321 0.404617 0.2714002 0.3191287 0.2535321 0.3191193 0.2714003 0.3024926 0.3258499 0.3024942 0.3079816 0.2817278 0.3079816 0.3024926 0.3258499 0.2817278 0.3079816 0.2817261 0.3258499 0.09147763 0.5927205 0.1093446 0.5926833 0.1093446 0.5102031 0.09147763 0.5927205 0.1093446 0.5102031 0.09147763 0.5102406 0.9889704 0.006222784 0.9796443 0.01500082 0.9776243 0.09848803 0.9889704 0.006222784 0.9776243 0.09848803 0.986896 0.09195154 0.6207264 0.01030147 0.6113958 0.00152266 0.6134929 0.08725202 0.6207264 0.01030147 0.6134929 0.08725202 0.6227685 0.09378945 0.986896 0.09195154 0.9776243 0.09848803 0.9984 0.09899502 0.986896 0.09195154 0.9984 0.09899502 0.9902383 0.09203273 0.6227685 0.09378945 0.6134929 0.08725202 0.6101498 0.08733332 0.6227685 0.09378945 0.6101498 0.08733332 0.6019881 0.09429562</float_array>
          <technique_common>
            <accessor source="#Loader_car_Loader_car_Material_0_002-mesh-map-0-array" count="201" stride="2">
              <param name="S" type="float"/>
              <param name="T" type="float"/>
            </accessor>
          </technique_common>
        </source>
        <vertices id="Loader_car_Loader_car_Material_0_002-mesh-vertices">
          <input semantic="POSITION" source="#Loader_car_Loader_car_Material_0_002-mesh-positions"/>
        </vertices>
        <triangles material="Loader_car_Material-material" count="67">
          <input semantic="VERTEX" source="#Loader_car_Loader_car_Material_0_002-mesh-vertices" offset="0"/>
          <input semantic="NORMAL" source="#Loader_car_Loader_car_Material_0_002-mesh-normals" offset="1"/>
          <input semantic="TEXCOORD" source="#Loader_car_Loader_car_Material_0_002-mesh-map-0" offset="2" set="0"/>
          <p>0 0 0 1 0 1 2 0 2 3 1 3 4 1 4 5 1 5 6 2 6 7 2 7 8 2 8 9 3 9 10 3 10 11 3 11 12 4 12 13 4 13 14 4 14 15 5 15 16 5 16 17 5 17 18 6 18 19 6 19 20 6 20 21 7 21 22 7 22 23 7 23 24 8 24 25 8 25 26 8 26 27 9 27 28 9 28 29 9 29 30 10 30 31 10 31 32 10 32 32 11 33 33 11 34 34 11 35 30 12 36 32 12 37 34 12 38 30 13 39 34 13 40 35 13 41 36 14 42 37 14 43 38 14 44 39 15 45 40 15 46 41 15 47 41 15 48 42 15 49 39 15 50 43 16 51 44 16 52 45 16 53 45 16 54 46 16 55 43 16 56 47 17 57 48 17 58 49 17 59 50 18 60 51 18 61 52 18 62 53 19 63 54 19 64 55 19 65 56 20 66 57 20 67 58 20 68 59 21 69 60 21 70 61 21 71 62 22 72 63 22 73 64 22 74 65 23 75 66 23 76 67 23 77 68 24 78 69 24 79 70 24 80 71 25 81 72 25 82 73 25 83 74 26 84 75 26 85 76 26 86 77 27 87 78 27 88 79 27 89 80 28 90 81 28 91 82 28 92 83 29 93 84 29 94 85 29 95 85 30 96 86 30 97 87 30 98 83 31 99 85 31 100 87 31 101 83 32 102 87 32 103 88 32 104 89 33 105 90 33 106 91 33 107 89 34 108 91 34 109 92 34 110 93 35 111 94 35 112 95 35 113 93 36 114 95 36 115 96 36 116 97 37 117 98 37 118 99 37 119 97 38 120 99 38 121 100 38 122 101 39 123 102 39 124 103 39 125 101 40 126 103 40 127 104 40 128 105 41 129 106 41 130 107 41 131 105 42 132 107 42 133 108 42 134 109 43 135 110 43 136 111 43 137 109 43 138 111 43 139 112 43 140 113 44 141 114 44 142 115 44 143 113 44 144 115 44 145 116 44 146 117 45 147 118 45 148 119 45 149 117 46 150 119 46 151 120 46 152 121 47 153 122 47 154 123 47 155 121 48 156 123 48 157 124 48 158 125 49 159 126 49 160 127 49 161 125 49 162 127 49 163 128 49 164 129 44 165 130 44 166 131 44 167 129 44 168 131 44 169 132 44 170 133 43 171 134 43 172 135 43 173 133 43 174 135 43 175 136 43 176 137 33 177 138 33 178 139 33 179 137 50 180 139 50 181 140 50 182 141 51 183 142 51 184 143 51 185 141 52 186 143 52 187 144 52 188 145 33 189 146 33 190 147 33 191 145 33 192 147 33 193 148 33 194 149 51 195 150 51 196 151 51 197 149 51 198 151 51 199 152 51 200</p>
        </triangles>
      </mesh>
    </geometry>
  </library_geometries>
  <library_visual_scenes>
    <visual_scene id="Scene" name="Scene">
      <node id="fork" name="fork" type="NODE">
        <matrix sid="transform">-4.37114e-8 1 0 -11.40535 -1 -4.37114e-8 0 4.678772 0 0 1 1.326265 0 0 0 1</matrix>
        <instance_geometry url="#Loader_car_Loader_car_Material_0_002-mesh" name="fork">
          <bind_material>
            <technique_common>
              <instance_material symbol="Loader_car_Material-material" target="#Loader_car_Material-material">
                <bind_vertex_input semantic="Loader_car_Loader_car_Material_0_002-mesh-map-0" input_semantic="TEXCOORD" input_set="0"/>
              </instance_material>
            </technique_common>
          </bind_material>
        </instance_geometry>
      </node>
    </visual_scene>
  </library_visual_scenes>
  <scene>
    <instance_visual_scene url="#Scene"/>
  </scene>
</COLLADA>