<?xml version="1.0" encoding="utf-8"?>
<COLLADA xmlns="http://www.collada.org/2005/11/COLLADASchema" version="1.4.1" xmlns:xsi="http://www.w3.org/2001/XMLSchema-instance">
  <asset>
    <contributor>
      <author>Blender User</author>
      <authoring_tool>Blender 4.4.0 commit date:2025-03-17, commit time:17:00, hash:05377985c527</authoring_tool>
    </contributor>
    <created>2025-05-05T13:09:16</created>
    <modified>2025-05-05T13:09:16</modified>
    <unit name="meter" meter="1"/>
    <up_axis>Z_UP</up_axis>
  </asset>
  <library_cameras>
    <camera id="Camera-camera" name="Camera">
      <optics>
        <technique_common>
          <perspective>
            <xfov sid="xfov">39.59775</xfov>
            <aspect_ratio>1.777778</aspect_ratio>
            <znear sid="znear">0.1</znear>
            <zfar sid="zfar">100</zfar>
          </perspective>
        </technique_common>
      </optics>
      <extra>
        <technique profile="blender">
          <shiftx sid="shiftx" type="float">0</shiftx>
          <shifty sid="shifty" type="float">0</shifty>
          <dof_distance sid="dof_distance" type="float">10</dof_distance>
        </technique>
      </extra>
    </camera>
  </library_cameras>
  <library_lights>
    <light id="Light-light" name="Light">
      <technique_common>
        <point>
          <color sid="color">1000 1000 1000</color>
          <constant_attenuation>1</constant_attenuation>
          <linear_attenuation>0</linear_attenuation>
          <quadratic_attenuation>0</quadratic_attenuation>
        </point>
      </technique_common>
      <extra>
        <technique profile="blender">
          <type sid="type" type="int">0</type>
          <flag sid="flag" type="int">0</flag>
          <mode sid="mode" type="int">2097153</mode>
          <red sid="red" type="float">1</red>
          <green sid="green" type="float">1</green>
          <blue sid="blue" type="float">1</blue>
          <energy sid="blender_energy" type="float">1000</energy>
          <spotsize sid="spotsize" type="float">75</spotsize>
          <spotblend sid="spotblend" type="float">0.15</spotblend>
          <clipsta sid="clipsta" type="float">0.04999995</clipsta>
          <clipend sid="clipend" type="float">40</clipend>
          <radius sid="radius" type="float">0.1</radius>
          <area_shape sid="area_shape" type="int">1</area_shape>
          <area_size sid="area_size" type="float">0.1</area_size>
          <area_sizey sid="area_sizey" type="float">0.1</area_sizey>
          <area_sizez sid="area_sizez" type="float">1</area_sizez>
        </technique>
      </extra>
    </light>
  </library_lights>
  <library_effects>
    <effect id="Loader_car_Material_002-effect">
      <profile_COMMON>
        <newparam sid="Image_0_png_002-surface">
          <surface type="2D">
            <init_from>Image_0_png_002</init_from>
          </surface>
        </newparam>
        <newparam sid="Image_0_png_002-sampler">
          <sampler2D>
            <source>Image_0_png_002-surface</source>
          </sampler2D>
        </newparam>
        <technique sid="common">
          <lambert>
            <emission>
              <color sid="emission">0 0 0 1</color>
            </emission>
            <diffuse>
              <texture texture="Image_0_png_002-sampler" texcoord="Loader_car_Loader_car_Material_0_004-mesh-map-0"/>
            </diffuse>
            <index_of_refraction>
              <float sid="ior">1.45</float>
            </index_of_refraction>
          </lambert>
        </technique>
      </profile_COMMON>
    </effect>
  </library_effects>
  <library_images>
    <image id="Image_0_png_002" name="Image_0_png_002">
      <init_from>Image_0.png.002.png</init_from>
    </image>
  </library_images>
  <library_materials>
    <material id="Loader_car_Material_002-material" name="Loader_car_Material.002">
      <instance_effect url="#Loader_car_Material_002-effect"/>
    </material>
  </library_materials>
  <library_geometries>
    <geometry id="Loader_car_Loader_car_Material_0_001-mesh" name="Loader_car_Loader_car_Material_0.001">
      <mesh>
        <source id="Loader_car_Loader_car_Material_0_001-mesh-positions">
          <float_array id="Loader_car_Loader_car_Material_0_001-mesh-positions-array" count="144">-8.92128 34.43245 0.1216071 8.84379 34.43248 0.1216071 8.84379 29.90112 -16.78969 -8.92128 29.90112 -16.78969 8.84379 17.52118 -29.16963 -8.92128 17.52118 -29.16963 8.84379 0.6098642 -33.701 -8.92128 0.6098642 -33.70099 8.84379 -16.30144 -29.16963 -8.92127 -16.30144 -29.16963 8.84379 -28.68134 -16.7897 -8.92127 -28.68134 -16.7897 8.84379 -33.21274 0.121588 -8.92127 -33.21274 0.1215956 8.84379 -28.68134 17.03289 -8.92127 -28.68134 17.03289 8.8438 -16.30145 29.41282 -8.92127 -16.30145 29.41283 8.8438 0.609849 33.9442 -8.92127 0.609849 33.94421 8.84379 17.52116 29.41284 -8.92127 17.52116 29.41284 8.84379 29.9011 17.03292 -8.92127 29.9011 17.03292 8.84379 34.43248 0.1216071 8.84379 -28.68134 -16.7897 8.84379 -28.68134 17.03289 8.84379 -16.30144 -29.16963 8.8438 -16.30145 29.41282 8.8438 0.609849 33.9442 8.84379 0.6098642 -33.701 8.84379 17.52116 29.41284 8.84379 17.52118 -29.16963 8.84379 29.9011 17.03292 8.84379 29.90112 -16.78969 8.84379 34.43248 0.1216071 -8.92127 -28.68134 17.03289 -8.92127 -28.68134 -16.7897 -8.92127 -33.21274 0.1215956 -8.92127 -16.30145 29.41283 -8.92127 -16.30144 -29.16963 -8.92127 0.609849 33.94421 -8.92128 0.6098642 -33.70099 -8.92127 17.52116 29.41284 -8.92128 17.52118 -29.16963 -8.92127 29.9011 17.03292 -8.92128 29.90112 -16.78969 -8.92128 34.43245 0.1216071</float_array>
          <technique_common>
            <accessor source="#Loader_car_Loader_car_Material_0_001-mesh-positions-array" count="48" stride="3">
              <param name="X" type="float"/>
              <param name="Y" type="float"/>
              <param name="Z" type="float"/>
            </accessor>
          </technique_common>
        </source>
        <source id="Loader_car_Loader_car_Material_0_001-mesh-normals">
          <float_array id="Loader_car_Loader_car_Material_0_001-mesh-normals-array" count="135">-8.26263e-7 0.9659262 -0.2588177 -1.66801e-6 0.965926 -0.2588185 -4.35733e-7 0.8660296 -0.4999929 0 0.8660222 -0.5000057 0 0.5000066 -0.8660218 0 0.4999932 -0.8660293 -3.03793e-7 7.33609e-6 -1 -3.03793e-7 -7.77311e-6 -1 0 -0.4999938 -0.866029 0 -0.5000068 -0.8660216 0 -0.9997932 0.02033758 0 -0.8660291 -0.4999937 0.6532159 -0.7571718 -5.81494e-6 0 -1 7.57179e-6 0 -0.6481066 0.7615497 0 -0.8660216 0.5000066 2.53473e-7 -0.5000076 0.866021 4.07267e-7 -0.4999945 0.8660286 5.06957e-7 -8.33781e-6 1 5.06946e-7 6.99237e-6 1 0 0.4999929 0.8660295 0 0.5000061 0.8660219 0 0.8660214 0.500007 0 0.817481 0.5759557 0 0.9659259 0.2588191 1 -1.82207e-7 0 1 -5.04948e-7 -1.79071e-7 1 1.23216e-7 -1.79071e-7 1 0 -1.5508e-7 1 6.40246e-7 -1.5508e-7 1 0 0 1 0 0 1 0 0 1 1.99119e-7 0 -1 0 0 -1 0 0 -1 -6.40247e-7 1.5508e-7 -1 0 1.5508e-7 -1 0 1.79071e-7 -1 0 1.79071e-7 -1 -2.91531e-7 3.1016e-7 -1 -1.39384e-6 3.10159e-7 -1.66868e-6 0.9659263 0.2588176 0.1643727 0 0.9863983 0.1643724 0 0.9863983</float_array>
          <technique_common>
            <accessor source="#Loader_car_Loader_car_Material_0_001-mesh-normals-array" count="45" stride="3">
              <param name="X" type="float"/>
              <param name="Y" type="float"/>
              <param name="Z" type="float"/>
            </accessor>
          </technique_common>
        </source>
        <source id="Loader_car_Loader_car_Material_0_001-mesh-map-0">
          <float_array id="Loader_car_Loader_car_Material_0_001-mesh-map-0-array" count="276">0.5570021 0.4986841 0.5570021 0.3554387 0.5331278 0.3554387 0.5570021 0.4986841 0.5331278 0.3554387 0.5331278 0.4986841 0.5331278 0.4986841 0.5331278 0.3554387 0.5092535 0.3554387 0.5331278 0.4986841 0.5092535 0.3554387 0.5092535 0.4986841 0.5092535 0.4986841 0.5092535 0.3554387 0.4853792 0.3554387 0.5092535 0.4986841 0.4853792 0.3554387 0.4853792 0.4986841 0.4853792 0.4986841 0.4853792 0.3554387 0.4615052 0.3554387 0.4853792 0.4986841 0.4615052 0.3554387 0.4615052 0.4986841 0.4615052 0.4986841 0.4615052 0.3554387 0.4376308 0.3554387 0.4615052 0.4986841 0.4376308 0.3554387 0.4376308 0.4986841 0.4376308 0.4986841 0.4376308 0.3554387 0.4137563 0.3554387 0.4376308 0.4986841 0.4137563 0.3554387 0.4137563 0.4986841 0.4137563 0.4986841 0.4137563 0.3554387 0.3898822 0.3554387 0.4137563 0.4986841 0.3898822 0.3554387 0.3898822 0.4986841 0.3898822 0.4986841 0.3898822 0.3554387 0.3660081 0.3554387 0.3898822 0.4986841 0.3660081 0.3554387 0.3660081 0.4986841 0.3660081 0.4986841 0.3660081 0.3554387 0.3421337 0.3554387 0.3660081 0.4986841 0.3421337 0.3554387 0.3421337 0.4986841 0.3421337 0.4986841 0.3421337 0.3554387 0.3182595 0.3554387 0.3421337 0.4986841 0.3182595 0.3554387 0.3182595 0.4986841 0.3182595 0.4986841 0.3182595 0.3554387 0.2943851 0.3554387 0.3182595 0.4986841 0.2943851 0.3554387 0.2943851 0.4986841 0.2943851 0.4986841 0.2943851 0.3554387 0.2705108 0.3554387 0.7548292 0.2775519 0.811033 0.2624628 0.8260821 0.2363678 0.7548292 0.2775519 0.8260821 0.2363678 0.7287343 0.2625029 0.7287343 0.2625029 0.8260821 0.2363678 0.7136598 0.2364224 0.7136598 0.2364224 0.8260821 0.2363678 0.8260674 0.2062442 0.7136598 0.2364224 0.8260674 0.2062442 0.7136452 0.2062989 0.7136452 0.2062989 0.8260674 0.2062442 0.810993 0.1801638 0.7136452 0.2062989 0.810993 0.1801638 0.7286942 0.1802039 0.7286942 0.1802039 0.810993 0.1801638 0.784898 0.1651148 0.7286942 0.1802039 0.784898 0.1651148 0.7547745 0.1651294 0.7703685 0.406274 0.8367834 0.4240698 0.8011917 0.4240698 0.8367834 0.4240698 0.7703685 0.406274 0.7525726 0.3754507 0.8367834 0.4240698 0.7525726 0.3754507 0.8676068 0.406274 0.8676068 0.406274 0.7525726 0.3754507 0.7525725 0.339859 0.8676068 0.406274 0.7525725 0.339859 0.8854025 0.3754507 0.8854025 0.3754507 0.7525725 0.339859 0.7703685 0.3090357 0.8854025 0.3754507 0.7703685 0.3090357 0.8854026 0.3398589 0.8854026 0.3398589 0.7703685 0.3090357 0.8011918 0.2912397 0.8854026 0.3398589 0.8011918 0.2912397 0.8676067 0.3090355 0.8676067 0.3090355 0.8011918 0.2912397 0.8367834 0.2912397 0 0 0 0 0 0 0.811033 0.2624628 0.7548292 0.2775519 0.4137563 0.3554387 0.4137563 0.3554387 0.4376308 0.3554387 0.811033 0.2624628 0.7548292 0.2775519 0.3898822 0.3554387 0.4137563 0.3554387</float_array>
          <technique_common>
            <accessor source="#Loader_car_Loader_car_Material_0_001-mesh-map-0-array" count="138" stride="2">
              <param name="S" type="float"/>
              <param name="T" type="float"/>
            </accessor>
          </technique_common>
        </source>
        <vertices id="Loader_car_Loader_car_Material_0_001-mesh-vertices">
          <input semantic="POSITION" source="#Loader_car_Loader_car_Material_0_001-mesh-positions"/>
        </vertices>
        <triangles material="Loader_car_Material_002-material" count="46">
          <input semantic="VERTEX" source="#Loader_car_Loader_car_Material_0_001-mesh-vertices" offset="0"/>
          <input semantic="NORMAL" source="#Loader_car_Loader_car_Material_0_001-mesh-normals" offset="1"/>
          <input semantic="TEXCOORD" source="#Loader_car_Loader_car_Material_0_001-mesh-map-0" offset="2" set="0"/>
          <p>0 0 0 1 1 1 2 2 2 0 0 3 2 2 4 3 3 5 3 3 6 2 2 7 4 4 8 3 3 9 4 4 10 5 5 11 5 5 12 4 4 13 6 6 14 5 5 15 6 6 16 7 7 17 7 7 18 6 6 19 8 8 20 7 7 21 8 8 22 9 9 23 9 9 24 8 8 25 10 10 26 9 9 27 10 10 28 11 11 29 11 11 30 10 10 31 12 12 32 11 11 33 12 12 34 13 13 35 13 13 36 12 12 37 14 14 38 13 13 39 14 14 40 15 15 41 15 15 42 14 14 43 16 16 44 15 15 45 16 16 46 17 17 47 17 17 48 16 16 49 18 18 50 17 17 51 18 18 52 19 19 53 19 19 54 18 18 55 20 20 56 19 19 57 20 20 58 21 21 59 21 21 60 20 20 61 22 22 62 21 21 63 22 22 64 23 23 65 23 23 66 22 22 67 24 24 68 26 25 69 25 25 70 27 25 71 26 26 72 27 26 73 28 26 74 28 27 75 27 27 76 29 27 77 29 28 78 27 28 79 30 28 80 29 29 81 30 29 82 31 29 83 31 30 84 30 30 85 32 30 86 31 31 87 32 31 88 33 31 89 33 32 90 32 32 91 34 32 92 33 33 93 34 33 94 35 33 95 36 34 96 37 34 97 38 34 98 37 34 99 36 34 100 39 34 101 37 34 102 39 34 103 40 34 104 40 35 105 39 35 106 41 35 107 40 36 108 41 36 109 42 36 110 42 37 111 41 37 112 43 37 113 42 38 114 43 38 115 44 38 116 44 39 117 43 39 118 45 39 119 44 40 120 45 40 121 46 40 122 46 41 123 45 41 124 47 41 125 45 42 126 35 42 127 47 42 128 25 43 129 26 44 130 12 12 131 12 12 132 10 10 133 25 43 134 26 44 135 14 14 136 12 12 137</p>
        </triangles>
      </mesh>
    </geometry>
  </library_geometries>
  <library_visual_scenes>
    <visual_scene id="Scene" name="Scene">
      <node id="front_wheel_right_001" name="front_wheel_right.001" type="NODE">
        <matrix sid="transform">-3.69078e-10 0.007391505 0 0 -0.008443532 -3.23093e-10 0 0 0 0 0.007391506 0 0 0 0 1</matrix>
        <instance_geometry url="#Loader_car_Loader_car_Material_0_001-mesh" name="front_wheel_right.001">
          <bind_material>
            <technique_common>
              <instance_material symbol="Loader_car_Material_002-material" target="#Loader_car_Material_002-material">
                <bind_vertex_input semantic="Loader_car_Loader_car_Material_0_004-mesh-map-0" input_semantic="TEXCOORD" input_set="0"/>
              </instance_material>
            </technique_common>
          </bind_material>
        </instance_geometry>
      </node>
      <node id="Camera" name="Camera" type="NODE">
        <matrix sid="transform">0.6859207 -0.3240135 0.6515582 7.358891 0.7276763 0.3054208 -0.6141704 -6.925791 0 0.8953956 0.4452714 4.958309 0 0 0 1</matrix>
        <instance_camera url="#Camera-camera"/>
      </node>
      <node id="Light" name="Light" type="NODE">
        <matrix sid="transform">-0.2908646 -0.7711008 0.5663932 4.076245 0.9551712 -0.1998834 0.2183912 1.005454 -0.05518906 0.6045247 0.7946723 5.903862 0 0 0 1</matrix>
        <instance_light url="#Light-light"/>
      </node>
    </visual_scene>
  </library_visual_scenes>
  <scene>
    <instance_visual_scene url="#Scene"/>
  </scene>
</COLLADA>