<?xml version="1.0" encoding="utf-8"?>
<COLLADA xmlns="http://www.collada.org/2005/11/COLLADASchema" version="1.4.1" xmlns:xsi="http://www.w3.org/2001/XMLSchema-instance">
  <asset>
    <contributor>
      <author>Blender User</author>
      <authoring_tool>Blender 4.4.0 commit date:2025-03-17, commit time:17:00, hash:05377985c527</authoring_tool>
    </contributor>
    <created>2025-04-25T19:40:49</created>
    <modified>2025-04-25T19:40:49</modified>
    <unit name="meter" meter="1"/>
    <up_axis>Z_UP</up_axis>
  </asset>
  <library_cameras>
    <camera id="Camera-camera" name="Camera">
      <optics>
        <technique_common>
          <perspective>
            <xfov sid="xfov">39.59775</xfov>
            <aspect_ratio>1.777778</aspect_ratio>
            <znear sid="znear">0.1</znear>
            <zfar sid="zfar">100</zfar>
          </perspective>
        </technique_common>
      </optics>
      <extra>
        <technique profile="blender">
          <shiftx sid="shiftx" type="float">0</shiftx>
          <shifty sid="shifty" type="float">0</shifty>
          <dof_distance sid="dof_distance" type="float">10</dof_distance>
        </technique>
      </extra>
    </camera>
  </library_cameras>
  <library_lights>
    <light id="Light-light" name="Light">
      <technique_common>
        <point>
          <color sid="color">1000 1000 1000</color>
          <constant_attenuation>1</constant_attenuation>
          <linear_attenuation>0</linear_attenuation>
          <quadratic_attenuation>0</quadratic_attenuation>
        </point>
      </technique_common>
      <extra>
        <technique profile="blender">
          <type sid="type" type="int">0</type>
          <flag sid="flag" type="int">0</flag>
          <mode sid="mode" type="int">2097153</mode>
          <red sid="red" type="float">1</red>
          <green sid="green" type="float">1</green>
          <blue sid="blue" type="float">1</blue>
          <energy sid="blender_energy" type="float">1000</energy>
          <spotsize sid="spotsize" type="float">75</spotsize>
          <spotblend sid="spotblend" type="float">0.15</spotblend>
          <clipsta sid="clipsta" type="float">0.04999995</clipsta>
          <clipend sid="clipend" type="float">40</clipend>
          <radius sid="radius" type="float">0.1</radius>
          <area_shape sid="area_shape" type="int">1</area_shape>
          <area_size sid="area_size" type="float">0.1</area_size>
          <area_sizey sid="area_sizey" type="float">0.1</area_sizey>
          <area_sizez sid="area_sizez" type="float">1</area_sizez>
        </technique>
      </extra>
    </light>
  </library_lights>
  <library_effects>
    <effect id="Loader_car_Material-effect">
      <profile_COMMON>
        <newparam sid="Image_0_png-surface">
          <surface type="2D">
            <init_from>Image_0_png</init_from>
          </surface>
        </newparam>
        <newparam sid="Image_0_png-sampler">
          <sampler2D>
            <source>Image_0_png-surface</source>
          </sampler2D>
        </newparam>
        <technique sid="common">
          <lambert>
            <emission>
              <color sid="emission">0 0 0 1</color>
            </emission>
            <diffuse>
              <texture texture="Image_0_png-sampler" texcoord="Loader_car_Loader_car_Material_0_002-mesh-map-0"/>
            </diffuse>
            <index_of_refraction>
              <float sid="ior">1.45</float>
            </index_of_refraction>
          </lambert>
        </technique>
      </profile_COMMON>
    </effect>
  </library_effects>
  <library_images>
    <image id="Image_0_png" name="Image_0_png">
      <init_from>Image_0.png</init_from>
    </image>
  </library_images>
  <library_materials>
    <material id="Loader_car_Material-material" name="Loader_car_Material">
      <instance_effect url="#Loader_car_Material-effect"/>
    </material>
  </library_materials>
  <library_geometries>
    <geometry id="Loader_car_Loader_car_Material_0_002-mesh" name="Loader_car_Loader_car_Material_0.002">
      <mesh>
        <source id="Loader_car_Loader_car_Material_0_002-mesh-positions">
          <float_array id="Loader_car_Loader_car_Material_0_002-mesh-positions-array" count="459">-0.4005241 5.901966 26.27898 -0.4005241 5.901966 24.96134 -1.527054 4.938465 24.96134 -1.527054 4.938465 24.96134 -1.527065 4.938465 26.27898 -0.4005241 5.901966 26.27898 1.268326 3.950764 26.27898 1.268336 3.950764 24.96134 0.9971659 5.40807 24.96134 0.9971659 5.40807 24.96134 0.9971659 5.40807 26.27898 1.268326 3.950764 26.27898 0.1417961 2.98727 26.27898 0.1417961 2.98727 24.96133 1.268336 3.950764 24.96134 1.268336 3.950764 24.96134 1.268326 3.950764 26.27898 0.1417961 2.98727 26.27898 -1.255894 3.481068 26.27898 -1.255894 3.481068 24.96134 0.1417961 2.98727 24.96133 0.1417961 2.98727 24.96133 0.1417961 2.98727 26.27898 -1.255894 3.481068 26.27898 -1.527065 4.938465 26.27898 -1.527054 4.938465 24.96134 -1.255894 3.481068 24.96134 -1.255894 3.481068 24.96134 -1.255894 3.481068 26.27898 -1.527065 4.938465 26.27898 1.268326 3.950764 26.27898 0.9971659 5.40807 26.27898 -0.4005241 5.901966 26.27898 -1.527065 4.938465 26.27898 -1.255894 3.481068 26.27898 0.1417961 2.98727 26.27898 0.2865658 3.958263 25.04478 0.2865753 3.958263 23.44561 0.3330461 4.871166 23.44562 -0.5917549 4.01807 25.04478 -0.5917549 4.01807 23.44562 0.2865753 3.958263 23.44561 0.2865658 3.958263 25.04478 -0.5452843 4.930866 25.04478 -0.5452747 4.930866 23.44562 -0.5917549 4.01807 23.44562 -0.5917549 4.01807 25.04478 -0.4266453 6.04237 23.48791 -0.5952053 6.948368 22.3805 -2.530584 5.293064 22.3805 -2.530584 5.293064 22.3805 -1.661694 4.985966 23.48791 -0.4266453 6.04237 23.48791 1.105665 5.500965 23.48791 1.806006 6.099865 22.3805 -0.5952053 6.948368 22.3805 -0.5952053 6.948368 22.3805 -0.4266453 6.04237 23.48791 1.105665 5.500965 23.48791 1.402945 3.903164 23.48791 2.271866 3.596165 22.3805 1.806006 6.099865 22.3805 1.806006 6.099865 22.3805 1.105665 5.500965 23.48791 1.402945 3.903164 23.48791 0.1679153 2.846867 23.48791 0.3364965 1.940861 22.38048 2.271866 3.596165 22.3805 2.271866 3.596165 22.3805 1.402945 3.903164 23.48791 0.1679153 2.846867 23.48791 -1.364395 3.388264 23.48791 -2.064724 2.789364 22.3805 0.3364965 1.940861 22.38048 0.3364965 1.940861 22.38048 0.1679153 2.846867 23.48791 -1.364395 3.388264 23.48791 -1.661694 4.985966 23.48791 -2.530584 5.293064 22.3805 -2.064724 2.789364 22.3805 -2.064724 2.789364 22.3805 -1.364395 3.388264 23.48791 -1.661694 4.985966 23.48791 1.402945 3.903164 23.48791 1.105665 5.500965 23.48791 -0.4266453 6.04237 23.48791 -1.661694 4.985966 23.48791 -1.364395 3.388264 23.48791 0.1679153 2.846867 23.48791 -5.496525 -104.1279 -27.52498 -5.496525 -1.838345 -27.52497 -5.496525 3.614864 -32.91159 -5.496525 -104.1279 -30.28151 -5.496525 -104.1279 -30.28151 -5.496525 3.614864 -32.91159 5.194565 3.614864 -32.91159 5.194565 -104.1279 -30.28151 -5.496525 -104.1279 -30.28151 5.194565 -104.1279 -30.28151 2.211535 -109.0263 -30.1829 -2.513494 -109.0263 -30.1829 5.194565 -104.1279 -27.52498 5.194565 -1.838345 -27.52497 -5.496525 -1.838345 -27.52497 -5.496525 -104.1279 -27.52498 5.194565 -104.1279 -27.52498 5.194565 -104.1279 -30.28151 5.194565 3.614864 -32.91159 5.194565 -1.838345 -27.52497 2.211535 -109.0263 -30.1829 2.211535 -109.0263 -27.52498 -2.513494 -109.0263 -27.52498 -2.513494 -109.0263 -30.1829 5.194565 -104.1279 -27.52498 -5.496525 -104.1279 -27.52498 -2.513494 -109.0263 -27.52498 2.211535 -109.0263 -27.52498 5.194565 -104.1279 -30.28151 5.194565 -104.1279 -27.52498 2.211535 -109.0263 -27.52498 2.211535 -109.0263 -30.1829 -5.496525 -104.1279 -27.52498 -5.496525 -104.1279 -30.28151 -2.513494 -109.0263 -30.1829 -2.513494 -109.0263 -27.52498 5.194565 3.614864 -32.91159 -5.496525 3.614864 -32.91159 -5.496525 3.614864 18.3976 5.194565 3.614864 18.3976 -5.496525 -1.838345 22.443 5.194565 -1.838345 22.443 5.194565 10.60017 22.443 -5.496525 10.60017 22.443 -5.496525 -1.838345 -27.52497 5.194565 -1.838345 -27.52497 5.194565 -1.838345 22.443 -5.496525 -1.838345 22.443 -5.496525 3.614864 -32.91159 -5.496525 -1.838345 -27.52497 -5.496525 -1.838345 22.443 -5.496525 3.614864 18.3976 5.194565 -1.838345 -27.52497 5.194565 3.614864 -32.91159 5.194565 3.614864 18.3976 5.194565 -1.838345 22.443 -5.496525 3.614864 18.3976 -5.496525 -1.838345 22.443 -5.496525 10.60017 22.443 -5.496525 5.615971 18.3976 5.194565 -1.838345 22.443 5.194565 3.614864 18.3976 5.194565 5.615971 18.3976 5.194565 10.60017 22.443</float_array>
          <technique_common>
            <accessor source="#Loader_car_Loader_car_Material_0_002-mesh-positions-array" count="153" stride="3">
              <param name="X" type="float"/>
              <param name="Y" type="float"/>
              <param name="Z" type="float"/>
            </accessor>
          </technique_common>
        </source>
        <source id="Loader_car_Loader_car_Material_0_002-mesh-normals">
          <float_array id="Loader_car_Loader_car_Material_0_002-mesh-normals-array" count="150">-0.6499755 0.7599551 0 -0.6499719 0.7599584 -5.3708e-6 0.9831248 0.1829363 7.44614e-6 0.9831262 0.1829292 0 0.6499701 -0.7599599 0 0.6499732 -0.7599571 4.88258e-6 -0.3331183 -0.9428852 0 -0.3331166 -0.9428856 0 -0.9831281 -0.1829185 -8.17805e-6 -0.9831268 -0.1829257 0 1.00232e-6 0 1 0 0 1 0.9987069 -0.05083853 5.95321e-6 -0.06793421 -0.9976898 0 -0.06793487 -0.9976899 -6.77405e-7 -0.9987062 0.05085474 -5.97434e-6 -0.9987066 0.05084425 0 -0.5273134 0.6165319 0.5846615 -0.5273187 0.6164899 0.5847011 0.2703038 0.764944 0.5846338 0.2702703 0.7649291 0.5846688 0.7975794 0.1484047 0.5846738 0.7975908 0.148396 0.5846603 0.5273084 -0.6165322 0.5846658 0.5273084 -0.6165328 0.584665 -0.2703016 -0.7649475 0.5846301 -0.2702658 -0.7649346 0.5846638 -0.7975959 -0.1484076 0.5846503 -0.7975882 -0.148414 0.5846592 3.33554e-6 0 1 -1.11184e-6 0 1 -1 0 0 -1 0 0 0 -0.02440345 -0.9997022 0 -0.02440345 -0.9997022 0 -0.02012693 -0.9997975 0 -0.02012699 -0.9997975 0 0 1 1 0 0 1 0 0 0 -1 0 0.8540906 -0.5201243 0 0.8540906 -0.5201244 0 -0.8540906 -0.5201244 0 -0.8540905 -0.5201245 0 0 1 0 -1 2.23994e-7 0 -1 0 0 1 0 0 1 0 0</float_array>
          <technique_common>
            <accessor source="#Loader_car_Loader_car_Material_0_002-mesh-normals-array" count="50" stride="3">
              <param name="X" type="float"/>
              <param name="Y" type="float"/>
              <param name="Z" type="float"/>
            </accessor>
          </technique_common>
        </source>
        <source id="Loader_car_Loader_car_Material_0_002-mesh-map-0">
          <float_array id="Loader_car_Loader_car_Material_0_002-mesh-map-0-array" count="402">0.1836218 0.1966059 0.1814264 0.1966389 0.1813282 0.1985124 0.1813282 0.1985124 0.1835237 0.1984795 0.1836218 0.1966059 0.2063956 0.2000324 0.2085977 0.2000341 0.2085977 0.1975914 0.2085977 0.1975914 0.2063956 0.1975896 0.2063956 0.2000324 0.1861922 0.1961337 0.1883655 0.1962022 0.1881677 0.194334 0.1881677 0.194334 0.1859936 0.1942658 0.1861922 0.1961337 0.1859936 0.1984758 0.1881677 0.198544 0.1883655 0.1962022 0.1883655 0.1962022 0.1861922 0.1961337 0.1859936 0.1984758 0.09045886 0.6354313 0.09266048 0.6354339 0.09266048 0.6329872 0.09266048 0.6329872 0.09045886 0.6329845 0.09045886 0.6354313 0.07597798 0.6304815 0.07812243 0.6317174 0.08026701 0.6304771 0.08026701 0.6304771 0.08026701 0.6280005 0.07812243 0.6267648 0.07597798 0.6304815 0.08026701 0.6304771 0.07812243 0.6267648 0.07597798 0.6304815 0.07812243 0.6267648 0.07597798 0.6280053 0.2047172 0.2002627 0.2047172 0.1975899 0.2031936 0.1975896 0.3260107 0.2907471 0.3286504 0.2907471 0.328663 0.2892779 0.328663 0.2892779 0.3260234 0.2892779 0.3260107 0.2907471 0.2031936 0.2002629 0.2031936 0.1975904 0.2016704 0.1975896 0.2016704 0.1975896 0.2016704 0.2002618 0.2031936 0.2002629 0.07183974 0.6362435 0.07266747 0.6348468 0.06841313 0.6348468 0.06841313 0.6348468 0.06912469 0.6362435 0.07183974 0.6362435 0.1771736 0.1954764 0.1754381 0.1942658 0.1754381 0.1982898 0.1754381 0.1982898 0.1771736 0.1980444 0.1771736 0.1954764 0.1734952 0.1966811 0.171638 0.1961423 0.171638 0.2003394 0.171638 0.2003394 0.1734952 0.1993595 0.1734952 0.1966811 0.08891916 0.6282706 0.08684599 0.6285075 0.08718681 0.6317174 0.08718681 0.6317174 0.08913666 0.6303188 0.08891916 0.6282706 0.08913666 0.6257033 0.08718639 0.6244845 0.08684599 0.6285075 0.08684599 0.6285075 0.08891916 0.6282706 0.08913666 0.6257033 0.1753576 0.1966965 0.1734952 0.1961423 0.1734952 0.2003465 0.1734952 0.2003465 0.1753576 0.1993792 0.1753576 0.1966965 0.07184481 0.6409453 0.0731998 0.6385944 0.07183974 0.6362435 0.07183974 0.6362435 0.06912469 0.6362435 0.06776976 0.6385944 0.07184481 0.6409453 0.07183974 0.6362435 0.06776976 0.6385944 0.07184481 0.6409453 0.06776976 0.6385944 0.06912976 0.6409453 0.8087937 0.01082879 0.9796443 0.01500082 0.9889704 0.006222784 0.8087937 0.01082879 0.9889704 0.006222784 0.808905 0.006222784 0.1093446 0.5020173 0.1093446 0.321966 0.09147644 0.3219686 0.1093446 0.5020173 0.09147644 0.3219686 0.09147644 0.50202 0.1093446 0.5020173 0.09147644 0.50202 0.09646165 0.5102031 0.1093446 0.5020173 0.09646165 0.5102031 0.1043585 0.5102021 0.3241667 0.2525892 0.4949407 0.2525891 0.4949426 0.234721 0.3241667 0.2525892 0.4949426 0.234721 0.3241683 0.234721 0.7916141 0.006135523 0.7915015 0.001530051 0.6113958 0.00152266 0.7916141 0.006135523 0.6113958 0.00152266 0.6207264 0.01030147 0.0705648 0.6329387 0.07495194 0.6329478 0.07495194 0.6250512 0.0705648 0.6329387 0.07495194 0.6250512 0.0705648 0.6250421 0.3241667 0.2525892 0.3241683 0.234721 0.3159899 0.2397071 0.3241667 0.2525892 0.3159899 0.2397071 0.3159891 0.247604 0.7915015 0.001530051 0.7916141 0.006135523 0.799715 0.005964398 0.7915015 0.001530051 0.799715 0.005964398 0.7996064 0.00152266 0.8087937 0.01082879 0.808905 0.006222784 0.8005856 0.006226301 0.8087937 0.01082879 0.8005856 0.006226301 0.8004779 0.01066702 0.404617 0.2714002 0.4046263 0.2535321 0.3191287 0.2535321 0.404617 0.2714002 0.3191287 0.2535321 0.3191193 0.2714003 0.3024926 0.3258499 0.3024942 0.3079816 0.2817278 0.3079816 0.3024926 0.3258499 0.2817278 0.3079816 0.2817261 0.3258499 0.09147763 0.5927205 0.1093446 0.5926833 0.1093446 0.5102031 0.09147763 0.5927205 0.1093446 0.5102031 0.09147763 0.5102406 0.9889704 0.006222784 0.9796443 0.01500082 0.9776243 0.09848803 0.9889704 0.006222784 0.9776243 0.09848803 0.986896 0.09195154 0.6207264 0.01030147 0.6113958 0.00152266 0.6134929 0.08725202 0.6207264 0.01030147 0.6134929 0.08725202 0.6227685 0.09378945 0.986896 0.09195154 0.9776243 0.09848803 0.9984 0.09899502 0.986896 0.09195154 0.9984 0.09899502 0.9902383 0.09203273 0.6227685 0.09378945 0.6134929 0.08725202 0.6101498 0.08733332 0.6227685 0.09378945 0.6101498 0.08733332 0.6019881 0.09429562</float_array>
          <technique_common>
            <accessor source="#Loader_car_Loader_car_Material_0_002-mesh-map-0-array" count="201" stride="2">
              <param name="S" type="float"/>
              <param name="T" type="float"/>
            </accessor>
          </technique_common>
        </source>
        <vertices id="Loader_car_Loader_car_Material_0_002-mesh-vertices">
          <input semantic="POSITION" source="#Loader_car_Loader_car_Material_0_002-mesh-positions"/>
        </vertices>
        <triangles material="Loader_car_Material-material" count="67">
          <input semantic="VERTEX" source="#Loader_car_Loader_car_Material_0_002-mesh-vertices" offset="0"/>
          <input semantic="NORMAL" source="#Loader_car_Loader_car_Material_0_002-mesh-normals" offset="1"/>
          <input semantic="TEXCOORD" source="#Loader_car_Loader_car_Material_0_002-mesh-map-0" offset="2" set="0"/>
          <p>0 0 0 1 0 1 2 0 2 3 1 3 4 1 4 5 1 5 6 2 6 7 2 7 8 2 8 9 3 9 10 3 10 11 3 11 12 4 12 13 4 13 14 4 14 15 5 15 16 5 16 17 5 17 18 6 18 19 6 19 20 6 20 21 7 21 22 7 22 23 7 23 24 8 24 25 8 25 26 8 26 27 9 27 28 9 28 29 9 29 30 10 30 31 10 31 32 10 32 32 11 33 33 11 34 34 11 35 30 11 36 32 11 37 34 11 38 30 11 39 34 11 40 35 11 41 36 12 42 37 12 43 38 12 44 39 13 45 40 13 46 41 13 47 41 14 48 42 14 49 39 14 50 43 15 51 44 15 52 45 15 53 45 16 54 46 16 55 43 16 56 47 17 57 48 17 58 49 17 59 50 18 60 51 18 61 52 18 62 53 19 63 54 19 64 55 19 65 56 20 66 57 20 67 58 20 68 59 21 69 60 21 70 61 21 71 62 22 72 63 22 73 64 22 74 65 23 75 66 23 76 67 23 77 68 24 78 69 24 79 70 24 80 71 25 81 72 25 82 73 25 83 74 26 84 75 26 85 76 26 86 77 27 87 78 27 88 79 27 89 80 28 90 81 28 91 82 28 92 83 11 93 84 11 94 85 11 95 85 29 96 86 29 97 87 29 98 83 30 99 85 30 100 87 30 101 83 11 102 87 11 103 88 11 104 89 31 105 90 31 106 91 31 107 89 32 108 91 32 109 92 32 110 93 33 111 94 33 112 95 33 113 93 34 114 95 34 115 96 34 116 97 35 117 98 35 118 99 35 119 97 36 120 99 36 121 100 36 122 101 37 123 102 37 124 103 37 125 101 37 126 103 37 127 104 37 128 105 38 129 106 38 130 107 38 131 105 39 132 107 39 133 108 39 134 109 40 135 110 40 136 111 40 137 109 40 138 111 40 139 112 40 140 113 11 141 114 11 142 115 11 143 113 11 144 115 11 145 116 11 146 117 41 147 118 41 148 119 41 149 117 42 150 119 42 151 120 42 152 121 43 153 122 43 154 123 43 155 121 44 156 123 44 157 124 44 158 125 45 159 126 45 160 127 45 161 125 45 162 127 45 163 128 45 164 129 11 165 130 11 166 131 11 167 129 11 168 131 11 169 132 11 170 133 40 171 134 40 172 135 40 173 133 40 174 135 40 175 136 40 176 137 46 177 138 46 178 139 46 179 137 47 180 139 47 181 140 47 182 141 48 183 142 48 184 143 48 185 141 49 186 143 49 187 144 49 188 145 31 189 146 31 190 147 31 191 145 31 192 147 31 193 148 31 194 149 48 195 150 48 196 151 48 197 149 48 198 151 48 199 152 48 200</p>
        </triangles>
      </mesh>
    </geometry>
  </library_geometries>
  <library_visual_scenes>
    <visual_scene id="Scene" name="Scene">
      <node id="fork" name="fork" type="NODE">
        <matrix sid="transform">5.88884e-10 0.0088 0 0 -0.0078 6.64382e-10 0 0 0 0 0.0088 0 0 0 0 1</matrix>
        <instance_geometry url="#Loader_car_Loader_car_Material_0_002-mesh" name="fork">
          <bind_material>
            <technique_common>
              <instance_material symbol="Loader_car_Material-material" target="#Loader_car_Material-material">
                <bind_vertex_input semantic="Loader_car_Loader_car_Material_0_002-mesh-map-0" input_semantic="TEXCOORD" input_set="0"/>
              </instance_material>
            </technique_common>
          </bind_material>
        </instance_geometry>
      </node>
      <node id="Camera" name="Camera" type="NODE">
        <matrix sid="transform">0.6859207 -0.3240135 0.6515582 7.358891 0.7276763 0.3054208 -0.6141704 -6.925791 0 0.8953956 0.4452714 4.958309 0 0 0 1</matrix>
        <instance_camera url="#Camera-camera"/>
      </node>
      <node id="Light" name="Light" type="NODE">
        <matrix sid="transform">-0.2908646 -0.7711008 0.5663932 4.076245 0.9551712 -0.1998834 0.2183912 1.005454 -0.05518906 0.6045247 0.7946723 5.903862 0 0 0 1</matrix>
        <instance_light url="#Light-light"/>
      </node>
    </visual_scene>
  </library_visual_scenes>
  <scene>
    <instance_visual_scene url="#Scene"/>
  </scene>
</COLLADA>